SplineFontDB: 3.2
FontName: NewHall-MediumItalic
FullName: NewHall Medium Italic 
FamilyName: NewHall
Weight: Medium
Copyright: (c) RISC OS Developments Ltd, released under Apache License 2.0
Version: 1
ItalicAngle: -15.5
UnderlinePosition: 0
UnderlineWidth: 0
Ascent: 400
Descent: 100
InvalidEm: 0
LayerCount: 2
Layer: 0 0 "Back" 1
Layer: 1 0 "Fore" 0
StyleMap: 0x0001
FSType: 0
OS2Version: 0
OS2_WeightWidthSlopeOnly: 0
OS2_UseTypoMetrics: 0
CreationTime: 1653360705
ModificationTime: 1653360706
PfmFamily: 17
TTFWeight: 500
TTFWidth: 5
LineGap: 45
VLineGap: 45
OS2TypoAscent: 0
OS2TypoAOffset: 1
OS2TypoDescent: 0
OS2TypoDOffset: 1
OS2TypoLinegap: 45
OS2WinAscent: 0
OS2WinAOffset: 1
OS2WinDescent: 0
OS2WinDOffset: 1
HheadAscent: 0
HheadAOffset: 1
HheadDescent: 0
HheadDOffset: 1
DEI: 91125
Encoding: Custom
UnicodeInterp: none
NameList: AGL For New Fonts
DisplaySize: -24
AntiAlias: 1
FitToEm: 0
BeginChars: 256 208

StartChar: exclam
Encoding: 33 33 1
Width: 166
VWidth: 0
Flags: HMW
LayerCount: 2
Fore
SplineSet
24 1 m 0
 12 13 12 33 24 45 c 0
 36 57 56 57 68 45 c 0
 80 33 80 13 68 1 c 0
 56 -11 36 -11 24 1 c 0
151 362 m 0
 179 335 122 283 70 92 c 0
 54 97 l 0
 115 333 82 333 110 361 c 0
 121 372 142 372 151 362 c 0
EndSplineSet
EndChar

StartChar: quotedbl
Encoding: 34 34 2
Width: 200
VWidth: 0
Flags: HMW
LayerCount: 2
Fore
SplineSet
104 334 m 0
 67 253 l 0
 50 253 l 0
 68 346 l 0
 75 384 122 372 104 334 c 0
193 334 m 0
 156 253 l 0
 139 253 l 0
 157 346 l 0
 164 384 211 372 193 334 c 0
EndSplineSet
EndChar

StartChar: numbersign
Encoding: 35 35 3
Width: 278
VWidth: 0
Flags: HMW
LayerCount: 2
Fore
SplineSet
32 241 m 0
 88 241 l 0
 104 353 l 0
 134 353 l 0
 117 241 l 0
 184 241 l 0
 200 353 l 0
 230 353 l 0
 214 241 l 0
 261 241 l 0
 261 211 l 0
 210 211 l 0
 200 143 l 0
 245 143 l 0
 245 113 l 0
 196 113 l 0
 180 0 l 0
 150 0 l 0
 166 113 l 0
 99 113 l 0
 82 0 l 0
 52 0 l 0
 69 113 l 0
 16 113 l 0
 16 143 l 0
 73 143 l 0
 83 211 l 0
 32 211 l 0
 32 241 l 0
103 143 m 0
 170 143 l 0
 180 211 l 0
 113 211 l 0
 103 143 l 0
EndSplineSet
EndChar

StartChar: dollar
Encoding: 36 36 4
Width: 278
VWidth: 0
Flags: HMW
LayerCount: 2
Fore
SplineSet
112 216 m 0
 120 208 130 202 138 199 c 0
 175 330 l 0
 158 330 134 332 113 311 c 0
 85 283 85 243 112 216 c 0
105 14 m 0
 128 13 155 21 171 37 c 0
 201 67 201 102 178 125 c 0
 166 137 154 142 143 147 c 0
 105 14 l 0
81 -3 m 0
 59 1 41 7 19 29 c 0
 -3 51 -3 92 12 107 c 0
 26 121 48 121 58 111 c 0
 71 98 71 81 61 71 c 0
 54 64 14 64 44 34 c 0
 56 22 68 19 86 15 c 0
 126 154 l 0
 113 161 96 166 78 184 c 0
 44 218 44 274 82 312 c 0
 117 347 152 348 180 349 c 0
 195 400 l 0
 214 400 l 0
 199 347 l 0
 217 342 232 338 248 322 c 0
 273 297 273 255 258 240 c 0
 247 229 228 229 217 240 c 0
 205 252 205 269 215 279 c 0
 221 285 226 283 232 289 c 0
 237 294 234 303 222 315 c 0
 212 325 201 326 194 328 c 0
 155 193 l 0
 170 184 193 178 216 155 c 0
 243 128 242 71 208 37 c 0
 178 7 142 -2 100 -5 c 0
 82 -67 l 0
 63 -67 l 0
 81 -3 l 0
EndSplineSet
EndChar

StartChar: percent
Encoding: 37 37 5
Width: 416
VWidth: 0
Flags: HMW
LayerCount: 2
Fore
SplineSet
270 16 m 0
 284 2 312 2 340 30 c 0
 367 57 397 127 369 155 c 0
 352 172 333 172 312 151 c 0
 293 132 236 50 270 16 c 0
239 14 m 0
 216 37 208 93 264 149 c 0
 305 190 354 191 381 164 c 0
 405 140 402 73 352 23 c 0
 313 -16 269 -16 239 14 c 0
172 312 m 0
 160 315 149 323 144 330 c 0
 134 329 117 319 104 306 c 0
 89 291 37 210 68 179 c 0
 84 163 114 163 144 193 c 0
 168 217 187 263 172 312 c 0
279 315 m 0
 257 294 216 294 191 301 c 0
 197 254 185 215 149 179 c 0
 116 146 67 146 41 172 c 0
 15 198 15 263 59 307 c 0
 105 353 154 352 175 331 c 0
 207 299 268 299 301 353 c 0
 324 353 l 0
 116 -8 l 0
 93 -8 l 0
 279 315 l 0
EndSplineSet
EndChar

StartChar: ampersand
Encoding: 38 38 6
Width: 426
VWidth: 0
Flags: HMW
LayerCount: 2
Fore
SplineSet
199 40 m 0
 170 77 145 149 139 191 c 0
 128 185 116 184 96 164 c 0
 59 127 60 66 89 37 c 0
 114 12 158 11 199 40 c 0
290 166 m 0
 283 173 261 176 253 177 c 0
 253 196 l 0
 387 196 l 0
 387 177 l 0
 370 175 354 171 335 152 c 0
 315 132 291 85 250 52 c 0
 280 12 325 12 359 73 c 0
 375 61 l 0
 326 -24 248 -24 211 22 c 0
 149 -19 75 -18 34 23 c 0
 2 55 2 115 48 161 c 0
 76 189 101 196 135 208 c 0
 126 257 123 309 159 345 c 0
 191 377 250 377 282 345 c 0
 305 322 306 279 277 250 c 0
 257 230 220 215 187 208 c 0
 188 202 190 196 191 190 c 0
 200 153 211 115 229 81 c 0
 231 77 234 72 236 68 c 0
 289 114 304 152 290 166 c 0
254 333 m 0
 236 351 210 351 193 334 c 0
 171 312 171 286 183 225 c 0
 205 233 224 237 241 254 c 0
 272 285 272 315 254 333 c 0
EndSplineSet
EndChar

StartChar: quotesingle
Encoding: 39 39 7
Width: 139
VWidth: 0
Flags: HMW
LayerCount: 2
Fore
SplineSet
91 346 m 0
 104 387 144 364 127 334 c 0
 74 255 l 0
 57 255 l 0
 91 346 l 0
EndSplineSet
EndChar

StartChar: parenleft
Encoding: 40 40 8
Width: 166
VWidth: 0
Flags: HMW
LayerCount: 2
Fore
SplineSet
89 -53 m 0
 79 -62 l 0
 -4 36 -4 197 106 307 c 0
 138 339 158 349 193 369 c 0
 200 358 l 0
 186 350 169 343 143 317 c 0
 33 207 33 -4 89 -53 c 0
EndSplineSet
EndChar

StartChar: parenright
Encoding: 41 41 9
Width: 166
VWidth: 0
Flags: HMW
LayerCount: 2
Fore
SplineSet
74 369 m 0
 157 271 157 110 47 0 c 0
 15 -32 -5 -42 -40 -62 c 0
 -47 -51 l 0
 -33 -43 -16 -36 10 -10 c 0
 120 100 120 311 64 360 c 0
 74 369 l 0
EndSplineSet
EndChar

StartChar: asterisk
Encoding: 42 42 10
Width: 250
VWidth: 0
Flags: HMW
LayerCount: 2
Fore
SplineSet
118 257 m 0
 123 258 l 0
 135 301 125 322 125 332 c 0
 125 360 167 360 167 332 c 0
 167 320 143 306 130 255 c 0
 133 253 l 0
 178 265 192 289 206 289 c 0
 233 289 233 247 205 247 c 0
 192 247 169 257 134 245 c 0
 133 242 l 0
 171 201 186 212 200 198 c 0
 216 182 186 151 172 166 c 0
 154 183 166 196 127 237 c 0
 123 236 l 0
 111 193 121 172 121 162 c 0
 121 134 79 134 79 162 c 0
 79 174 103 188 116 238 c 0
 113 239 l 0
 67 226 53 202 39 202 c 0
 12 202 12 244 40 244 c 0
 53 244 76 234 111 246 c 0
 111 251 l 0
 73 292 58 281 44 295 c 0
 28 311 58 342 72 327 c 0
 90 310 78 297 118 257 c 0
EndSplineSet
EndChar

StartChar: plus
Encoding: 43 43 11
Width: 303
VWidth: 0
Flags: HMW
LayerCount: 2
Fore
SplineSet
19 143 m 0
 128 143 l 0
 128 252 l 0
 161 252 l 0
 161 143 l 0
 270 143 l 0
 270 110 l 0
 161 110 l 0
 161 0 l 0
 128 0 l 0
 128 110 l 0
 19 110 l 0
 19 143 l 0
EndSplineSet
EndChar

StartChar: comma
Encoding: 44 44 12
Width: 139
VWidth: 0
Flags: HMW
LayerCount: 2
Fore
SplineSet
-23 -71 m 0
 2 -58 40 -32 42 -2 c 0
 -1 -9 -1 30 14 45 c 0
 26 57 50 57 64 43 c 0
 78 29 78 -11 47 -42 c 0
 25 -64 6 -74 -15 -84 c 0
 -23 -71 l 0
EndSplineSet
EndChar

StartChar: hyphen
Encoding: 45 45 13
Width: 166
VWidth: 0
Flags: HMW
LayerCount: 2
Fore
SplineSet
119 101 m 0
 16 101 l 0
 27 137 l 0
 130 137 l 0
 119 101 l 0
EndSplineSet
EndChar

StartChar: period
Encoding: 46 46 14
Width: 139
VWidth: 0
Flags: HMW
LayerCount: 2
Fore
SplineSet
18 1 m 0
 6 13 6 33 18 45 c 0
 30 57 50 57 62 45 c 0
 74 33 74 13 62 1 c 0
 50 -11 30 -11 18 1 c 0
EndSplineSet
EndChar

StartChar: slash
Encoding: 47 47 15
Width: 303
VWidth: 0
Flags: HMW
LayerCount: 2
Fore
SplineSet
96 -51 m 0
 70 -51 l 0
 207 369 l 0
 233 369 l 0
 96 -51 l 0
EndSplineSet
EndChar

StartChar: zero
Encoding: 48 48 16
Width: 278
VWidth: 0
Flags: HMW
LayerCount: 2
Fore
SplineSet
187 30 m 0
 139 -18 81 -18 49 14 c 0
 -12 76 14 238 91 315 c 0
 139 363 197 363 229 331 c 0
 290 269 264 107 187 30 c 0
77 23 m 0
 94 6 119 6 142 29 c 0
 189 76 245 277 201 322 c 0
 184 339 159 339 136 316 c 0
 89 269 33 68 77 23 c 0
EndSplineSet
EndChar

StartChar: one
Encoding: 49 49 17
Width: 278
VWidth: 0
Flags: HMW
LayerCount: 2
Fore
SplineSet
208 19 m 0
 204 0 l 0
 25 0 l 0
 29 19 l 0
 74 19 90 22 98 50 c 0
 159 265 l 0
 165 286 165 292 146 292 c 0
 93 292 l 0
 99 311 l 0
 130 315 188 330 215 353 c 0
 230 353 l 0
 146 54 l 0
 137 20 154 19 208 19 c 0
EndSplineSet
EndChar

StartChar: two
Encoding: 50 50 18
Width: 278
VWidth: 0
Flags: HMW
LayerCount: 2
Fore
SplineSet
37 42 m 0
 145 42 l 0
 175 42 183 35 220 101 c 0
 236 92 l 0
 196 0 l 0
 -18 0 l 0
 -28 28 123 143 166 186 c 0
 211 231 211 288 189 310 c 0
 164 335 115 335 84 304 c 0
 51 271 84 268 98 254 c 0
 109 243 109 224 97 212 c 0
 84 199 63 200 50 213 c 0
 31 232 31 278 71 318 c 0
 116 363 195 363 232 326 c 0
 263 295 263 230 220 187 c 0
 166 133 107 113 37 42 c 0
EndSplineSet
EndChar

StartChar: three
Encoding: 51 51 19
Width: 278
VWidth: 0
Flags: HMW
LayerCount: 2
Fore
SplineSet
75 320 m 0
 118 363 196 363 229 330 c 0
 262 297 262 248 226 212 c 0
 209 195 186 185 169 181 c 0
 183 175 196 168 207 155 c 0
 235 128 235 72 198 35 c 0
 144 -19 56 -19 20 17 c 0
 -6 43 -6 87 10 103 c 0
 22 115 43 115 54 104 c 0
 64 94 64 73 54 63 c 0
 46 55 20 47 38 29 c 0
 61 6 113 6 145 38 c 0
 183 76 183 138 158 163 c 0
 143 178 116 168 109 168 c 0
 84 168 84 193 109 193 c 0
 132 193 149 181 181 213 c 0
 211 243 211 296 190 317 c 0
 169 338 128 338 106 316 c 0
 98 308 98 302 106 294 c 0
 121 279 121 263 111 253 c 0
 98 240 77 240 67 250 c 0
 52 265 52 297 75 320 c 0
EndSplineSet
EndChar

StartChar: four
Encoding: 52 52 20
Width: 278
VWidth: 0
Flags: HMW
LayerCount: 2
Fore
SplineSet
217 19 m 0
 213 0 l 0
 58 0 l 0
 62 19 l 0
 99 19 118 24 124 50 c 0
 135 92 l 0
 -4 92 l 0
 -4 116 l 0
 233 353 l 0
 255 353 l 0
 189 116 l 0
 256 116 l 0
 250 92 l 0
 181 92 l 0
 172 54 l 0
 166 29 167 19 217 19 c 0
142 116 m 0
 187 276 l 0
 27 116 l 0
 142 116 l 0
EndSplineSet
EndChar

StartChar: five
Encoding: 53 53 21
Width: 278
VWidth: 0
Flags: HMW
LayerCount: 2
Fore
SplineSet
72 174 m 0
 73 144 38 144 38 165 c 0
 38 175 46 185 58 191 c 0
 103 353 l 0
 163 339 216 330 252 349 c 0
 276 362 277 341 251 315 c 0
 226 287 157 285 110 300 c 0
 84 205 l 0
 130 225 185 223 211 197 c 0
 248 160 248 84 198 34 c 0
 145 -19 60 -19 24 17 c 0
 -3 44 -3 80 16 99 c 0
 28 111 48 111 59 100 c 0
 71 88 71 69 59 57 c 0
 49 47 19 51 44 26 c 0
 68 2 114 2 149 37 c 0
 195 83 195 155 171 179 c 0
 150 200 104 200 72 174 c 0
EndSplineSet
EndChar

StartChar: six
Encoding: 54 54 22
Width: 278
VWidth: 0
Flags: HMW
LayerCount: 2
Fore
SplineSet
205 26 m 0
 161 -18 90 -19 51 20 c 0
 1 70 1 208 99 306 c 0
 158 365 223 365 258 330 c 0
 278 310 278 277 264 263 c 0
 250 249 234 249 220 263 c 0
 194 289 240 304 221 323 c 0
 207 337 174 337 142 305 c 0
 114 277 94 227 81 173 c 0
 129 219 190 219 224 185 c 0
 256 153 256 77 205 26 c 0
181 171 m 0
 163 189 123 189 98 164 c 0
 55 121 55 51 81 25 c 0
 99 7 138 7 163 32 c 0
 202 71 205 147 181 171 c 0
EndSplineSet
EndChar

StartChar: seven
Encoding: 55 55 23
Width: 278
VWidth: 0
Flags: HMW
LayerCount: 2
Fore
SplineSet
124 144 m 0
 238 304 l 0
 138 304 l 0
 104 304 87 299 51 238 c 0
 35 246 l 0
 78 342 l 0
 87 362 87 349 192 349 c 0
 241 349 253 350 281 353 c 0
 280 337 l 0
 115 94 134 27 109 2 c 0
 96 -11 80 -11 69 0 c 0
 51 18 51 41 124 144 c 0
EndSplineSet
EndChar

StartChar: eight
Encoding: 56 56 24
Width: 278
VWidth: 0
Flags: HMW
LayerCount: 2
Fore
SplineSet
170 197 m 0
 240 227 240 289 214 315 c 0
 186 343 142 343 116 317 c 0
 82 283 82 229 170 197 c 0
95 176 m 0
 46 211 46 280 87 321 c 0
 129 363 207 363 247 323 c 0
 276 294 276 218 187 186 c 0
 254 154 254 75 213 34 c 0
 160 -19 62 -19 23 19 c 0
 -10 53 -10 143 95 176 c 0
115 164 m 0
 29 137 29 60 56 33 c 0
 84 5 145 5 176 36 c 0
 209 69 209 131 115 164 c 0
EndSplineSet
EndChar

StartChar: nine
Encoding: 57 57 25
Width: 278
VWidth: 0
Flags: HMW
LayerCount: 2
Fore
SplineSet
180 181 m 0
 223 224 223 294 197 320 c 0
 179 338 140 338 115 313 c 0
 76 274 73 198 97 174 c 0
 115 156 155 156 180 181 c 0
197 172 m 0
 149 126 88 126 54 160 c 0
 22 192 22 268 73 319 c 0
 117 363 188 364 227 325 c 0
 277 275 277 137 179 39 c 0
 120 -20 55 -20 20 15 c 0
 0 35 0 68 14 82 c 0
 28 96 44 96 58 82 c 0
 84 56 38 41 57 22 c 0
 71 8 104 8 136 40 c 0
 164 68 184 118 197 172 c 0
EndSplineSet
EndChar

StartChar: colon
Encoding: 58 58 26
Width: 139
VWidth: 0
Flags: HMW
LayerCount: 2
Fore
SplineSet
30 1 m 0
 18 13 18 33 30 45 c 0
 42 57 62 57 74 45 c 0
 86 33 86 13 74 1 c 0
 62 -11 42 -11 30 1 c 0
74 180 m 0
 62 192 62 212 74 224 c 0
 86 236 106 236 118 224 c 0
 130 212 130 192 118 180 c 0
 106 168 86 168 74 180 c 0
EndSplineSet
EndChar

StartChar: semicolon
Encoding: 59 59 27
Width: 139
VWidth: 0
Flags: HMW
LayerCount: 2
Fore
SplineSet
78 180 m 0
 66 192 66 212 78 224 c 0
 90 236 110 236 122 224 c 0
 134 212 134 192 122 180 c 0
 110 168 90 168 78 180 c 0
1 -84 m 0
 -7 -71 l 0
 18 -58 56 -32 58 -2 c 0
 15 -9 15 30 30 45 c 0
 42 57 66 57 80 43 c 0
 94 29 94 -11 63 -42 c 0
 41 -64 22 -74 1 -84 c 0
EndSplineSet
EndChar

StartChar: less
Encoding: 60 60 28
Width: 303
VWidth: 0
Flags: HMW
LayerCount: 2
Fore
SplineSet
17 143 m 0
 272 259 l 0
 272 228 l 0
 51 127 l 0
 272 26 l 0
 272 -5 l 0
 17 111 l 0
 17 143 l 0
EndSplineSet
EndChar

StartChar: equal
Encoding: 61 61 29
Width: 303
VWidth: 0
Flags: HMW
LayerCount: 2
Fore
SplineSet
19 157 m 0
 19 191 l 0
 270 191 l 0
 270 157 l 0
 19 157 l 0
19 64 m 0
 19 98 l 0
 270 98 l 0
 270 64 l 0
 19 64 l 0
EndSplineSet
EndChar

StartChar: greater
Encoding: 62 62 30
Width: 303
VWidth: 0
Flags: HMW
LayerCount: 2
Fore
SplineSet
281 143 m 0
 281 111 l 0
 27 -5 l 0
 27 26 l 0
 247 127 l 0
 27 228 l 0
 27 259 l 0
 281 143 l 0
EndSplineSet
EndChar

StartChar: question
Encoding: 63 63 31
Width: 222
VWidth: 0
Flags: HMW
LayerCount: 2
Fore
SplineSet
60 1 m 0
 48 13 48 33 60 45 c 0
 72 57 92 57 104 45 c 0
 116 33 116 13 104 1 c 0
 92 -11 72 -11 60 1 c 0
176 225 m 0
 154 203 118 189 95 166 c 0
 81 152 81 130 87 124 c 0
 102 109 134 109 146 152 c 0
 161 149 l 0
 147 91 94 91 75 110 c 0
 54 131 54 174 93 213 c 0
 115 235 131 243 155 267 c 0
 186 298 186 328 173 341 c 0
 154 360 122 360 96 334 c 0
 79 317 73 289 74 262 c 0
 59 259 l 0
 55 286 60 321 85 346 c 0
 115 376 168 376 193 351 c 0
 216 328 216 265 176 225 c 0
EndSplineSet
EndChar

StartChar: at
Encoding: 64 64 32
Width: 373
VWidth: 0
Flags: HMW
LayerCount: 2
Fore
SplineSet
171 238 m 0
 154 221 110 129 144 95 c 0
 152 87 171 87 188 104 c 0
 206 122 240 218 217 241 c 0
 203 255 188 255 171 238 c 0
326 92 m 0
 360 92 l 0
 292 -32 139 -31 65 43 c 0
 -4 112 -4 241 72 317 c 0
 141 386 254 386 323 317 c 0
 378 262 378 167 319 108 c 0
 275 64 213 62 209 110 c 0
 178 65 133 65 102 96 c 0
 75 123 75 187 128 240 c 0
 161 273 224 273 234 233 c 0
 242 261 l 0
 290 261 l 0
 256 132 l 0
 244 88 266 85 289 108 c 0
 349 168 349 247 299 297 c 0
 240 356 148 355 91 298 c 0
 25 232 25 122 85 62 c 0
 147 0 274 0 326 92 c 0
EndSplineSet
EndChar

StartChar: A
Encoding: 65 65 33
Width: 352
VWidth: 0
Flags: HMW
LayerCount: 2
Fore
SplineSet
-37 23 m 0
 0 23 14 42 34 78 c 0
 200 369 l 0
 223 369 l 0
 283 59 l 0
 288 33 296 21 334 23 c 0
 330 0 l 0
 181 0 l 0
 185 23 l 0
 233 21 238 25 233 54 c 0
 220 119 l 0
 86 119 l 0
 58 70 l 0
 43 43 39 21 95 23 c 0
 91 0 l 0
 -41 0 l 0
 -37 23 l 0
216 142 m 0
 185 291 l 0
 99 142 l 0
 216 142 l 0
EndSplineSet
EndChar

StartChar: B
Encoding: 66 66 34
Width: 361
VWidth: 0
Flags: HMW
LayerCount: 2
Fore
SplineSet
237 152 m 0
 222 167 203 172 160 172 c 0
 125 172 l 0
 93 54 l 0
 85 26 97 23 125 23 c 0
 179 23 205 25 224 44 c 0
 262 82 262 127 237 152 c 0
174 194 m 0
 219 194 237 203 253 219 c 0
 283 249 283 305 264 324 c 0
 250 338 223 341 198 341 c 0
 184 341 172 342 164 311 c 0
 131 194 l 0
 174 194 l 0
153 0 m 0
 -17 0 l 0
 -13 23 l 0
 22 23 31 24 38 50 c 0
 109 307 l 0
 117 335 111 338 61 338 c 0
 65 361 l 0
 208 361 l 0
 260 362 293 353 310 336 c 0
 342 304 342 251 310 219 c 0
 288 197 262 190 234 185 c 0
 257 177 271 176 291 156 c 0
 321 126 321 72 285 36 c 0
 259 10 225 0 153 0 c 0
EndSplineSet
EndChar

StartChar: C
Encoding: 67 67 35
Width: 361
VWidth: 0
Flags: HMW
LayerCount: 2
Fore
SplineSet
313 98 m 0
 303 79 297 58 277 38 c 0
 216 -23 117 -23 60 34 c 0
 -8 102 16 239 90 313 c 0
 162 385 267 385 307 327 c 0
 339 361 l 0
 357 361 l 0
 325 214 l 0
 305 214 l 0
 304 254 299 300 274 325 c 0
 243 356 183 356 147 320 c 0
 88 261 47 98 102 42 c 0
 140 5 214 5 258 49 c 0
 278 69 287 89 294 107 c 0
 313 98 l 0
EndSplineSet
EndChar

StartChar: D
Encoding: 68 68 36
Width: 389
VWidth: 0
Flags: HMW
LayerCount: 2
Fore
SplineSet
302 61 m 0
 247 6 199 0 135 0 c 0
 -18 0 l 0
 -14 23 l 0
 21 23 30 24 37 50 c 0
 108 307 l 0
 116 335 110 338 60 338 c 0
 64 361 l 0
 209 361 l 0
 253 362 297 354 327 324 c 0
 389 262 380 139 302 61 c 0
218 338 m 0
 175 338 169 334 163 311 c 0
 92 54 l 0
 84 25 92 23 140 23 c 0
 184 23 208 27 236 55 c 0
 291 110 334 265 285 314 c 0
 264 335 242 338 218 338 c 0
EndSplineSet
EndChar

StartChar: E
Encoding: 69 69 37
Width: 361
VWidth: 0
Flags: HMW
LayerCount: 2
Fore
SplineSet
92 53 m 0
 84 24 92 23 140 23 c 0
 201 23 226 29 258 61 c 0
 280 83 290 104 299 125 c 0
 320 121 l 0
 281 0 l 0
 -18 0 l 0
 -14 23 l 0
 21 23 30 24 37 50 c 0
 108 307 l 0
 116 335 110 338 60 338 c 0
 64 361 l 0
 351 361 l 0
 332 234 l 0
 309 234 l 0
 310 271 307 302 289 320 c 0
 271 338 238 338 218 338 c 0
 175 338 169 334 163 311 c 0
 131 195 l 0
 173 195 193 198 212 217 c 0
 228 233 231 245 237 258 c 0
 259 257 l 0
 213 97 l 0
 191 98 l 0
 198 120 198 150 185 163 c 0
 173 175 159 176 126 176 c 0
 92 53 l 0
EndSplineSet
EndChar

StartChar: F
Encoding: 70 70 38
Width: 333
VWidth: 0
Flags: HMW
LayerCount: 2
Fore
SplineSet
90 53 m 0
 82 24 91 23 139 23 c 0
 133 0 l 0
 -22 0 l 0
 -16 23 l 0
 19 23 28 24 35 50 c 0
 106 307 l 0
 114 335 108 338 58 338 c 0
 62 361 l 0
 349 361 l 0
 330 234 l 0
 307 234 l 0
 308 271 305 302 287 320 c 0
 269 338 236 338 216 338 c 0
 173 338 167 334 161 311 c 0
 129 195 l 0
 171 195 191 198 210 217 c 0
 226 233 229 245 235 258 c 0
 257 257 l 0
 211 97 l 0
 189 98 l 0
 196 120 196 150 183 163 c 0
 171 175 157 176 124 176 c 0
 90 53 l 0
EndSplineSet
EndChar

StartChar: G
Encoding: 71 71 39
Width: 389
VWidth: 0
Flags: HMW
LayerCount: 2
Fore
SplineSet
378 142 m 0
 336 140 332 137 326 115 c 0
 291 -8 l 0
 275 -8 l 0
 266 33 l 0
 207 -22 115 -22 62 31 c 0
 -15 108 23 241 101 319 c 0
 166 384 281 384 323 327 c 0
 355 361 l 0
 373 361 l 0
 341 214 l 0
 321 217 l 0
 320 252 315 299 286 328 c 0
 258 356 191 356 148 313 c 0
 80 245 53 88 105 36 c 0
 135 6 205 6 244 45 c 0
 263 64 286 124 273 137 c 0
 266 144 244 144 223 142 c 0
 227 164 l 0
 382 164 l 0
 378 142 l 0
EndSplineSet
EndChar

StartChar: H
Encoding: 72 72 40
Width: 416
VWidth: 0
Flags: HMW
LayerCount: 2
Fore
SplineSet
-12 23 m 0
 23 23 32 24 39 50 c 0
 110 307 l 0
 118 335 112 338 62 338 c 0
 66 361 l 0
 220 361 l 0
 216 338 l 0
 181 338 172 337 165 311 c 0
 133 196 l 0
 292 196 l 0
 323 307 l 0
 331 335 325 338 275 338 c 0
 279 361 l 0
 433 361 l 0
 429 338 l 0
 394 338 385 337 378 311 c 0
 307 54 l 0
 299 26 305 23 355 23 c 0
 351 0 l 0
 197 0 l 0
 201 23 l 0
 236 23 245 24 252 50 c 0
 286 173 l 0
 127 173 l 0
 94 54 l 0
 86 26 92 23 142 23 c 0
 138 0 l 0
 -16 0 l 0
 -12 23 l 0
EndSplineSet
EndChar

StartChar: I
Encoding: 73 73 41
Width: 203
VWidth: 0
Flags: HMW
LayerCount: 2
Fore
SplineSet
164 311 m 0
 93 54 l 0
 85 26 91 23 141 23 c 0
 137 0 l 0
 -17 0 l 0
 -13 23 l 0
 22 23 31 24 38 50 c 0
 109 307 l 0
 117 335 111 338 61 338 c 0
 65 361 l 0
 219 361 l 0
 215 338 l 0
 180 338 171 337 164 311 c 0
EndSplineSet
EndChar

StartChar: J
Encoding: 74 74 42
Width: 305
VWidth: 0
Flags: HMW
LayerCount: 2
Fore
SplineSet
13 126 m 0
 32 145 65 145 79 131 c 0
 93 117 93 96 79 82 c 0
 53 56 36 96 18 78 c 0
 10 70 10 52 25 37 c 0
 54 8 100 8 125 33 c 0
 143 51 152 82 158 100 c 0
 215 307 l 0
 223 335 217 338 167 338 c 0
 171 361 l 0
 325 361 l 0
 321 338 l 0
 286 338 277 337 270 311 c 0
 209 90 l 0
 203 73 195 47 175 27 c 0
 129 -19 50 -19 14 17 c 0
 -14 45 -14 99 13 126 c 0
EndSplineSet
EndChar

StartChar: K
Encoding: 75 75 43
Width: 370
VWidth: 0
Flags: HMW
LayerCount: 2
Fore
SplineSet
307 289 m 0
 208 208 l 0
 283 56 l 0
 296 28 297 21 347 23 c 0
 343 0 l 0
 186 0 l 0
 190 23 l 0
 243 21 243 30 234 48 c 0
 171 178 l 0
 110 128 l 0
 90 54 l 0
 82 26 88 23 138 23 c 0
 134 0 l 0
 -20 0 l 0
 -16 23 l 0
 19 23 28 24 35 50 c 0
 106 307 l 0
 114 335 108 338 58 338 c 0
 62 361 l 0
 216 361 l 0
 212 338 l 0
 177 338 168 337 161 311 c 0
 121 165 l 0
 281 296 l 0
 317 326 300 341 256 338 c 0
 260 361 l 0
 407 361 l 0
 403 338 l 0
 369 332 353 327 307 289 c 0
EndSplineSet
EndChar

StartChar: L
Encoding: 76 76 44
Width: 333
VWidth: 0
Flags: HMW
LayerCount: 2
Fore
SplineSet
142 23 m 0
 200 23 221 30 250 59 c 0
 274 83 281 104 291 125 c 0
 315 123 l 0
 275 0 l 0
 -16 0 l 0
 -12 23 l 0
 23 23 32 24 39 50 c 0
 110 307 l 0
 118 335 112 338 62 338 c 0
 66 361 l 0
 220 361 l 0
 216 338 l 0
 181 338 172 337 165 311 c 0
 94 54 l 0
 86 26 92 23 142 23 c 0
EndSplineSet
EndChar

StartChar: M
Encoding: 77 77 45
Width: 472
VWidth: 0
Flags: HMW
LayerCount: 2
Fore
SplineSet
433 311 m 0
 361 54 l 0
 354 27 359 23 409 23 c 0
 405 0 l 0
 248 0 l 0
 252 23 l 0
 292 21 300 27 306 50 c 0
 380 316 l 0
 181 0 l 0
 165 0 l 0
 137 301 l 0
 73 74 l 0
 64 40 70 24 117 23 c 0
 113 0 l 0
 -13 0 l 0
 -9 23 l 0
 16 22 36 34 48 78 c 0
 117 324 l 0
 120 335 98 340 59 338 c 0
 63 361 l 0
 181 361 l 0
 206 81 l 0
 382 361 l 0
 487 361 l 0
 483 338 l 0
 450 340 439 332 433 311 c 0
EndSplineSet
EndChar

StartChar: N
Encoding: 78 78 46
Width: 407
VWidth: 0
Flags: HMW
LayerCount: 2
Fore
SplineSet
364 283 m 0
 282 -9 l 0
 266 -9 l 0
 129 296 l 0
 67 74 l 0
 58 40 64 24 111 23 c 0
 107 0 l 0
 -19 0 l 0
 -15 23 l 0
 10 22 30 34 42 78 c 0
 111 324 l 0
 114 335 92 340 53 338 c 0
 57 361 l 0
 155 361 l 0
 281 81 l 0
 339 287 l 0
 348 319 335 338 292 338 c 0
 296 361 l 0
 430 361 l 0
 426 338 l 0
 387 337 374 319 364 283 c 0
EndSplineSet
EndChar

StartChar: O
Encoding: 79 79 47
Width: 389
VWidth: 0
Flags: HMW
LayerCount: 2
Fore
SplineSet
239 47 m 0
 302 110 334 280 282 332 c 0
 257 357 192 357 149 314 c 0
 86 251 54 81 106 29 c 0
 131 4 196 4 239 47 c 0
329 331 m 0
 394 266 374 127 298 51 c 0
 223 -24 113 -24 59 30 c 0
 -6 95 14 234 90 310 c 0
 165 385 275 385 329 331 c 0
EndSplineSet
EndChar

StartChar: P
Encoding: 80 80 48
Width: 333
VWidth: 0
Flags: HMW
LayerCount: 2
Fore
SplineSet
39 50 m 0
 110 307 l 0
 118 335 112 338 62 338 c 0
 66 361 l 0
 209 361 l 0
 258 361 289 354 310 333 c 0
 343 300 343 236 304 197 c 0
 271 164 227 156 173 156 c 0
 122 156 l 0
 94 54 l 0
 86 26 92 23 142 23 c 0
 138 0 l 0
 -16 0 l 0
 -12 23 l 0
 23 23 32 24 39 50 c 0
171 178 m 0
 204 178 232 181 253 202 c 0
 284 233 284 301 265 320 c 0
 248 339 225 341 216 341 c 0
 181 341 172 339 165 313 c 0
 128 178 l 0
 171 178 l 0
EndSplineSet
EndChar

StartChar: Q
Encoding: 81 81 49
Width: 389
VWidth: 0
Flags: HMW
LayerCount: 2
Fore
SplineSet
200 22 m 0
 207 60 208 78 189 97 c 0
 170 116 143 116 123 96 c 0
 103 76 103 40 121 22 c 0
 135 8 157 8 200 22 c 0
219 106 m 0
 236 89 238 67 239 48 c 0
 302 110 334 280 282 332 c 0
 257 357 192 357 149 314 c 0
 86 251 60 96 97 40 c 0
 93 62 92 86 117 111 c 0
 142 136 189 136 219 106 c 0
196 -4 m 0
 152 -14 96 -7 59 30 c 0
 -6 95 14 234 90 310 c 0
 165 385 275 385 329 331 c 0
 394 266 385 89 246 13 c 0
 245 -9 246 -38 258 -50 c 0
 271 -63 286 -61 309 -23 c 0
 326 -30 l 0
 296 -105 237 -105 214 -82 c 0
 196 -64 190 -30 196 -4 c 0
EndSplineSet
EndChar

StartChar: R
Encoding: 82 82 50
Width: 370
VWidth: 0
Flags: HMW
LayerCount: 2
Fore
SplineSet
206 162 m 0
 195 173 194 172 121 172 c 0
 88 54 l 0
 80 26 86 23 136 23 c 0
 132 0 l 0
 -22 0 l 0
 -18 23 l 0
 17 23 26 24 33 50 c 0
 104 307 l 0
 112 335 106 338 56 338 c 0
 60 361 l 0
 203 361 l 0
 266 361 298 356 325 329 c 0
 354 300 354 252 323 220 c 0
 295 193 256 185 215 180 c 0
 301 141 247 52 271 28 c 0
 282 17 296 23 317 67 c 0
 334 61 l 0
 327 47 323 30 307 14 c 0
 278 -15 247 -15 228 4 c 0
 192 40 236 132 206 162 c 0
201 341 m 0
 175 341 166 339 159 313 c 0
 126 194 l 0
 169 194 l 0
 200 194 240 200 259 219 c 0
 292 252 291 301 272 320 c 0
 251 341 216 341 201 341 c 0
EndSplineSet
EndChar

StartChar: S
Encoding: 83 83 51
Width: 333
VWidth: 0
Flags: HMW
LayerCount: 2
Fore
SplineSet
88 331 m 0
 138 381 230 382 271 332 c 0
 298 361 l 0
 316 361 l 0
 286 225 l 0
 270 228 l 0
 269 260 266 302 243 325 c 0
 214 354 151 354 121 324 c 0
 97 300 97 263 116 244 c 0
 151 209 226 204 264 166 c 0
 293 137 293 71 251 29 c 0
 201 -21 100 -21 46 32 c 0
 16 0 l 0
 0 0 l 0
 28 139 l 0
 44 136 l 0
 42 97 51 68 75 44 c 0
 115 4 183 4 220 41 c 0
 243 64 243 101 224 120 c 0
 188 156 118 158 79 197 c 0
 50 226 50 293 88 331 c 0
EndSplineSet
EndChar

StartChar: T
Encoding: 84 84 52
Width: 342
VWidth: 0
Flags: HMW
LayerCount: 2
Fore
SplineSet
229 311 m 0
 158 54 l 0
 150 26 156 23 210 23 c 0
 206 0 l 0
 35 0 l 0
 39 23 l 0
 87 23 96 24 103 50 c 0
 174 307 l 0
 182 337 167 340 151 338 c 0
 101 338 71 290 39 227 c 0
 20 232 l 0
 64 361 l 0
 363 361 l 0
 339 219 l 0
 318 223 l 0
 323 299 317 338 261 338 c 0
 253 338 237 339 229 311 c 0
EndSplineSet
EndChar

StartChar: U
Encoding: 85 85 53
Width: 407
VWidth: 0
Flags: HMW
LayerCount: 2
Fore
SplineSet
316 112 m 0
 305 73 291 46 274 29 c 0
 225 -20 118 -20 71 27 c 0
 48 50 39 82 54 133 c 0
 102 307 l 0
 110 335 104 338 54 338 c 0
 58 361 l 0
 212 361 l 0
 208 338 l 0
 173 338 164 337 157 311 c 0
 109 138 l 0
 96 91 95 59 118 36 c 0
 151 3 215 3 252 40 c 0
 268 56 283 89 295 131 c 0
 339 287 l 0
 348 319 337 337 292 338 c 0
 296 361 l 0
 430 361 l 0
 426 338 l 0
 387 337 374 318 364 283 c 0
 316 112 l 0
EndSplineSet
EndChar

StartChar: V
Encoding: 86 86 54
Width: 352
VWidth: 0
Flags: HMW
LayerCount: 2
Fore
SplineSet
68 302 m 0
 61 336 51 338 18 338 c 0
 22 361 l 0
 170 361 l 0
 166 338 l 0
 120 338 112 340 118 307 c 0
 163 77 l 0
 285 291 l 0
 305 326 297 338 248 338 c 0
 252 361 l 0
 386 361 l 0
 382 338 l 0
 343 337 331 318 311 283 c 0
 145 -8 l 0
 128 -8 l 0
 68 302 l 0
EndSplineSet
EndChar

StartChar: W
Encoding: 87 87 55
Width: 463
VWidth: 0
Flags: HMW
LayerCount: 2
Fore
SplineSet
118 307 m 0
 146 93 l 0
 233 289 l 0
 228 328 236 341 188 338 c 0
 192 361 l 0
 326 361 l 0
 322 338 l 0
 283 339 277 331 280 307 c 0
 308 93 l 0
 396 290 l 0
 413 326 412 339 361 338 c 0
 365 361 l 0
 487 361 l 0
 483 338 l 0
 454 329 439 320 422 283 c 0
 290 -8 l 0
 273 -8 l 0
 240 240 l 0
 128 -8 l 0
 111 -8 l 0
 70 302 l 0
 65 339 52 337 27 338 c 0
 31 361 l 0
 160 361 l 0
 156 338 l 0
 130 337 114 339 118 307 c 0
EndSplineSet
EndChar

StartChar: X
Encoding: 88 88 56
Width: 352
VWidth: 0
Flags: HMW
LayerCount: 2
Fore
SplineSet
77 71 m 0
 53 47 56 16 107 23 c 0
 103 0 l 0
 -37 0 l 0
 -33 23 l 0
 -6 23 10 34 30 54 c 0
 153 179 l 0
 102 303 l 0
 89 336 77 339 35 338 c 0
 39 361 l 0
 194 361 l 0
 190 338 l 0
 148 338 140 333 151 306 c 0
 188 214 l 0
 260 289 l 0
 287 317 290 341 238 338 c 0
 242 361 l 0
 385 361 l 0
 381 338 l 0
 349 334 322 322 285 284 c 0
 197 194 l 0
 255 56 l 0
 267 27 276 21 320 23 c 0
 316 0 l 0
 159 0 l 0
 163 23 l 0
 217 21 215 28 207 48 c 0
 162 158 l 0
 77 71 l 0
EndSplineSet
EndChar

StartChar: Y
Encoding: 89 89 57
Width: 342
VWidth: 0
Flags: HMW
LayerCount: 2
Fore
SplineSet
161 54 m 0
 153 26 159 23 214 23 c 0
 210 0 l 0
 40 0 l 0
 44 23 l 0
 90 23 99 24 106 50 c 0
 135 154 l 0
 74 303 l 0
 61 333 54 340 16 338 c 0
 20 361 l 0
 170 361 l 0
 166 338 l 0
 124 339 116 332 127 306 c 0
 179 177 l 0
 263 285 l 0
 279 305 294 342 235 338 c 0
 239 361 l 0
 379 361 l 0
 375 338 l 0
 334 334 321 319 291 281 c 0
 186 148 l 0
 161 54 l 0
EndSplineSet
EndChar

StartChar: Z
Encoding: 90 90 58
Width: 333
VWidth: 0
Flags: HMW
LayerCount: 2
Fore
SplineSet
262 338 m 0
 155 339 139 338 110 309 c 0
 82 281 71 252 59 234 c 0
 41 240 l 0
 82 361 l 0
 334 361 l 0
 330 342 l 0
 58 23 l 0
 155 21 206 27 231 52 c 0
 259 80 266 103 281 131 c 0
 301 125 l 0
 261 0 l 0
 -13 0 l 0
 -10 19 l 0
 262 338 l 0
EndSplineSet
EndChar

StartChar: bracketleft
Encoding: 91 91 59
Width: 166
VWidth: 0
Flags: HMW
LayerCount: 2
Fore
SplineSet
98 -55 m 0
 -14 -55 l 0
 102 369 l 0
 205 369 l 0
 202 354 l 0
 131 354 l 0
 23 -40 l 0
 101 -40 l 0
 98 -55 l 0
EndSplineSet
EndChar

StartChar: backslash
Encoding: 92 92 60
Width: 303
VWidth: 0
Flags: HMW
LayerCount: 2
Fore
SplineSet
45 369 m 0
 75 369 l 0
 261 0 l 0
 231 0 l 0
 45 369 l 0
EndSplineSet
EndChar

StartChar: bracketright
Encoding: 93 93 61
Width: 166
VWidth: 0
Flags: HMW
LayerCount: 2
Fore
SplineSet
180 369 m 0
 64 -55 l 0
 -42 -55 l 0
 -39 -40 l 0
 35 -40 l 0
 143 354 l 0
 65 354 l 0
 68 369 l 0
 180 369 l 0
EndSplineSet
EndChar

StartChar: asciicircum
Encoding: 94 94 62
Width: 166
VWidth: 0
Flags: HMW
LayerCount: 2
Fore
SplineSet
165 260 m 0
 147 260 l 0
 105 311 l 0
 38 260 l 0
 18 260 l 0
 97 344 l 0
 122 344 l 0
 165 260 l 0
EndSplineSet
EndChar

StartChar: underscore
Encoding: 95 95 63
Width: 250
VWidth: 0
Flags: HMW
LayerCount: 2
Fore
SplineSet
0 -41 m 0
 250 -41 l 0
 250 -62 l 0
 0 -62 l 0
 0 -41 l 0
EndSplineSet
EndChar

StartChar: grave
Encoding: 96 96 64
Width: 166
VWidth: 0
Flags: HMW
LayerCount: 2
Fore
SplineSet
72 336 m 0
 131 260 l 0
 117 260 l 0
 44 314 l 0
 22 331 51 363 72 336 c 0
EndSplineSet
EndChar

StartChar: a
Encoding: 97 97 65
Width: 287
VWidth: 0
Flags: HMW
LayerCount: 2
Fore
SplineSet
60 25 m 0
 75 10 106 10 130 34 c 0
 167 71 188 165 158 195 c 0
 143 210 112 210 88 186 c 0
 51 149 30 55 60 25 c 0
264 69 m 0
 221 -25 153 -25 148 24 c 0
 116 -16 52 -16 26 10 c 0
 -8 44 -9 137 51 197 c 0
 102 248 173 248 188 178 c 0
 204 223 l 0
 246 223 l 0
 191 53 l 0
 174 1 206 0 249 79 c 0
 264 69 l 0
EndSplineSet
EndChar

StartChar: b
Encoding: 98 98 66
Width: 278
VWidth: 0
Flags: HMW
LayerCount: 2
Fore
SplineSet
153 35 m 0
 190 72 213 167 184 196 c 0
 169 211 134 211 102 179 c 0
 73 150 39 53 74 18 c 0
 89 3 121 3 153 35 c 0
24 109 m 0
 85 308 l 0
 95 340 90 346 46 345 c 0
 50 363 l 0
 148 369 l 0
 93 192 l 0
 140 243 196 242 223 214 c 0
 255 183 255 96 196 37 c 0
 127 -32 -19 -32 24 109 c 0
EndSplineSet
EndChar

StartChar: c
Encoding: 99 99 67
Width: 222
VWidth: 0
Flags: HMW
LayerCount: 2
Fore
SplineSet
185 53 m 0
 139 -20 59 -19 28 11 c 0
 -9 49 -8 135 49 192 c 0
 100 243 159 243 189 213 c 0
 205 197 205 165 190 150 c 0
 179 139 163 139 152 150 c 0
 144 158 144 175 152 183 c 0
 158 189 180 194 169 204 c 0
 153 220 118 220 93 195 c 0
 39 141 41 56 68 29 c 0
 89 8 130 8 172 64 c 0
 185 53 l 0
EndSplineSet
EndChar

StartChar: d
Encoding: 100 100 68
Width: 305
VWidth: 0
Flags: HMW
LayerCount: 2
Fore
SplineSet
156 29 m 0
 111 -18 55 -18 26 11 c 0
 -10 47 -10 131 54 195 c 0
 105 246 176 246 199 195 c 0
 233 308 l 0
 242 338 241 345 193 345 c 0
 195 363 l 0
 293 369 l 0
 201 53 l 0
 186 1 221 1 263 77 c 0
 279 70 l 0
 268 51 261 34 242 15 c 0
 209 -18 160 -19 156 29 c 0
173 202 m 0
 154 221 121 221 94 194 c 0
 41 141 41 48 63 26 c 0
 80 9 110 9 130 29 c 0
 171 70 204 171 173 202 c 0
EndSplineSet
EndChar

StartChar: e
Encoding: 101 101 69
Width: 222
VWidth: 0
Flags: HMW
LayerCount: 2
Fore
SplineSet
175 59 m 0
 188 46 l 0
 134 -18 55 -19 24 12 c 0
 -8 44 -8 138 45 191 c 0
 96 242 163 242 188 217 c 0
 206 199 206 164 182 140 c 0
 147 105 94 96 50 86 c 0
 50 68 48 43 64 27 c 0
 83 8 126 8 175 59 c 0
51 104 m 0
 92 112 121 123 140 142 c 0
 166 168 166 191 152 205 c 0
 140 217 116 217 95 196 c 0
 68 169 56 141 51 104 c 0
EndSplineSet
EndChar

StartChar: f
Encoding: 102 102 70
Width: 166
VWidth: 0
Flags: HMW
LayerCount: 2
Fore
SplineSet
65 222 m 0
 76 251 87 308 120 341 c 0
 155 376 200 376 223 353 c 0
 238 338 238 316 229 307 c 0
 215 293 199 293 188 304 c 0
 169 323 197 342 192 347 c 0
 187 352 165 352 151 338 c 0
 126 313 114 254 104 222 c 0
 168 222 l 0
 162 202 l 0
 100 202 l 0
 87 150 52 10 19 -88 c 0
 -34 -103 l 0
 -5 -38 34 90 60 202 c 0
 12 202 l 0
 19 222 l 0
 65 222 l 0
EndSplineSet
EndChar

StartChar: g
Encoding: 103 103 71
Width: 268
VWidth: 0
Flags: HMW
LayerCount: 2
Fore
SplineSet
154 -16 m 0
 133 5 32 5 14 -13 c 0
 0 -27 0 -55 13 -68 c 0
 35 -90 124 -90 151 -63 c 0
 164 -50 164 -26 154 -16 c 0
99 204 m 0
 67 172 67 126 85 108 c 0
 102 91 137 91 155 109 c 0
 188 142 187 187 169 205 c 0
 152 222 117 222 99 204 c 0
256 240 m 0
 264 232 264 219 257 212 c 0
 240 195 224 216 222 222 c 0
 221 230 212 230 192 214 c 0
 229 190 230 136 201 107 c 0
 132 38 35 117 35 61 c 0
 35 23 148 53 185 16 c 0
 206 -5 206 -47 180 -73 c 0
 141 -112 8 -112 -26 -78 c 0
 -49 -55 -49 -3 22 12 c 0
 -15 27 -15 92 59 97 c 0
 22 110 21 172 51 202 c 0
 88 239 143 239 176 223 c 0
 211 255 241 255 256 240 c 0
EndSplineSet
EndChar

StartChar: h
Encoding: 104 104 72
Width: 305
VWidth: 0
Flags: HMW
LayerCount: 2
Fore
SplineSet
158 56 m 0
 195 172 l 0
 199 183 199 196 191 204 c 0
 181 214 88 211 45 0 c 0
 0 0 l 0
 97 307 l 0
 107 339 103 347 56 345 c 0
 60 363 l 0
 157 369 l 0
 97 173 l 0
 153 243 203 241 224 220 c 0
 243 201 241 179 234 158 c 0
 200 53 l 0
 183 1 214 1 263 79 c 0
 279 68 l 0
 230 -32 130 -30 158 56 c 0
EndSplineSet
EndChar

StartChar: i
Encoding: 105 105 73
Width: 166
VWidth: 0
Flags: HMW
LayerCount: 2
Fore
SplineSet
132 310 m 0
 121 299 102 299 91 310 c 0
 80 321 80 339 91 350 c 0
 102 361 121 361 132 350 c 0
 143 339 143 321 132 310 c 0
19 56 m 0
 56 170 l 0
 67 203 70 210 22 209 c 0
 26 226 l 0
 119 233 l 0
 61 53 l 0
 45 1 75 1 126 81 c 0
 142 70 l 0
 129 52 121 36 102 17 c 0
 62 -23 -5 -20 19 56 c 0
EndSplineSet
EndChar

StartChar: j
Encoding: 106 106 74
Width: 157
VWidth: 0
Flags: HMW
LayerCount: 2
Fore
SplineSet
27 -9 m 0
 78 170 l 0
 89 203 86 210 36 209 c 0
 40 226 l 0
 138 233 l 0
 70 -8 l 0
 40 -115 -46 -115 -73 -88 c 0
 -86 -75 -86 -51 -74 -39 c 0
 -63 -28 -49 -28 -38 -39 c 0
 -25 -52 -41 -72 -37 -77 c 0
 -28 -85 6 -85 27 -9 c 0
151 310 m 0
 140 299 122 299 111 310 c 0
 100 321 100 339 111 350 c 0
 122 361 140 361 151 350 c 0
 162 339 162 321 151 310 c 0
EndSplineSet
EndChar

StartChar: k
Encoding: 107 107 75
Width: 278
VWidth: 0
Flags: HMW
LayerCount: 2
Fore
SplineSet
133 116 m 0
 151 122 169 131 185 147 c 0
 207 169 207 187 196 198 c 0
 183 211 158 211 119 172 c 0
 72 125 62 66 42 0 c 0
 -1 0 l 0
 94 306 l 0
 104 339 99 346 55 345 c 0
 59 363 l 0
 157 369 l 0
 93 163 l 0
 152 244 201 244 227 218 c 0
 244 201 244 169 220 145 c 0
 201 126 177 116 147 108 c 0
 172 92 168 30 176 22 c 0
 182 16 194 16 233 75 c 0
 247 68 l 0
 202 -17 162 -16 145 1 c 0
 118 28 142 83 125 100 c 0
 120 105 109 95 101 103 c 0
 94 110 101 128 133 116 c 0
EndSplineSet
EndChar

StartChar: l
Encoding: 108 108 76
Width: 166
VWidth: 0
Flags: HMW
LayerCount: 2
Fore
SplineSet
102 306 m 0
 113 339 116 346 68 345 c 0
 72 363 l 0
 165 369 l 0
 63 53 l 0
 47 1 77 1 128 81 c 0
 144 70 l 0
 131 52 123 36 104 17 c 0
 64 -23 -3 -20 21 56 c 0
 102 306 l 0
EndSplineSet
EndChar

StartChar: m
Encoding: 109 109 77
Width: 444
VWidth: 0
Flags: HMW
LayerCount: 2
Fore
SplineSet
193 148 m 0
 216 221 170 221 128 179 c 0
 92 143 72 77 53 0 c 0
 8 0 l 0
 61 170 l 0
 71 201 76 209 26 209 c 0
 30 226 l 0
 117 233 l 0
 103 173 l 0
 159 253 253 253 238 173 c 0
 300 256 406 256 374 158 c 0
 340 53 l 0
 324 1 354 1 405 81 c 0
 421 70 l 0
 408 52 400 36 381 17 c 0
 341 -23 274 -20 298 56 c 0
 335 172 l 0
 349 217 301 217 264 180 c 0
 232 148 207 64 192 0 c 0
 147 0 l 0
 193 148 l 0
EndSplineSet
EndChar

StartChar: n
Encoding: 110 110 78
Width: 305
VWidth: 0
Flags: HMW
LayerCount: 2
Fore
SplineSet
97 174 m 0
 155 242 203 242 224 221 c 0
 243 202 241 180 234 159 c 0
 200 53 l 0
 183 1 214 1 263 79 c 0
 279 68 l 0
 230 -32 130 -30 158 56 c 0
 195 173 l 0
 199 184 199 197 191 205 c 0
 181 215 88 211 45 0 c 0
 0 0 l 0
 54 170 l 0
 64 202 60 211 17 209 c 0
 21 226 l 0
 114 232 l 0
 97 174 l 0
EndSplineSet
EndChar

StartChar: o
Encoding: 111 111 79
Width: 250
VWidth: 0
Flags: HMW
LayerCount: 2
Fore
SplineSet
135 28 m 0
 181 74 196 173 164 205 c 0
 149 220 116 220 93 197 c 0
 47 151 32 52 64 20 c 0
 79 5 112 5 135 28 c 0
181 29 m 0
 134 -18 64 -18 29 17 c 0
 -8 54 -9 140 47 196 c 0
 94 243 164 243 199 208 c 0
 236 171 237 85 181 29 c 0
EndSplineSet
EndChar

StartChar: p
Encoding: 112 112 80
Width: 287
VWidth: 0
Flags: HMW
LayerCount: 2
Fore
SplineSet
160 33 m 0
 202 75 221 176 195 202 c 0
 181 216 150 216 126 192 c 0
 84 150 55 58 90 23 c 0
 104 9 136 9 160 33 c 0
105 192 m 0
 145 242 202 242 229 215 c 0
 265 179 265 90 201 26 c 0
 155 -20 88 -20 60 28 c 0
 36 -53 l 0
 27 -84 38 -86 70 -85 c 0
 66 -103 l 0
 -51 -103 l 0
 -47 -85 l 0
 -27 -85 -16 -83 -10 -60 c 0
 60 176 l 0
 68 202 60 210 20 209 c 0
 23 226 l 0
 117 233 l 0
 105 192 l 0
EndSplineSet
EndChar

StartChar: q
Encoding: 113 113 81
Width: 278
VWidth: 0
Flags: HMW
LayerCount: 2
Fore
SplineSet
93 191 m 0
 47 145 32 51 58 25 c 0
 74 9 107 9 135 37 c 0
 181 83 196 177 170 203 c 0
 154 219 121 219 93 191 c 0
77 -85 m 0
 104 -85 114 -85 121 -60 c 0
 146 22 l 0
 106 -16 51 -17 22 12 c 0
 -11 45 -11 135 50 196 c 0
 99 245 176 245 202 196 c 0
 232 230 l 0
 250 230 l 0
 167 -53 l 0
 160 -76 161 -88 201 -85 c 0
 197 -103 l 0
 73 -103 l 0
 77 -85 l 0
EndSplineSet
EndChar

StartChar: r
Encoding: 114 114 82
Width: 222
VWidth: 0
Flags: HMW
LayerCount: 2
Fore
SplineSet
49 0 m 0
 5 0 l 0
 55 170 l 0
 65 203 68 209 20 209 c 0
 24 226 l 0
 114 233 l 0
 99 173 l 0
 141 241 189 241 208 222 c 0
 220 210 220 184 207 171 c 0
 198 162 178 162 170 170 c 0
 163 177 168 225 136 193 c 0
 91 148 72 99 49 0 c 0
EndSplineSet
EndChar

StartChar: s
Encoding: 115 115 83
Width: 222
VWidth: 0
Flags: HMW
LayerCount: 2
Fore
SplineSet
53 206 m 0
 88 241 158 241 189 210 c 0
 204 195 204 169 195 160 c 0
 182 147 165 147 156 156 c 0
 136 176 165 196 156 205 c 0
 143 218 101 218 82 199 c 0
 69 186 69 166 80 155 c 0
 100 135 141 133 167 107 c 0
 188 86 188 46 163 21 c 0
 126 -16 44 -16 15 12 c 0
 -1 29 -1 62 13 76 c 0
 23 86 39 86 51 74 c 0
 72 53 29 39 49 19 c 0
 64 4 109 4 133 28 c 0
 147 42 147 64 136 75 c 0
 112 99 70 99 49 120 c 0
 27 142 27 180 53 206 c 0
EndSplineSet
EndChar

StartChar: t
Encoding: 116 116 84
Width: 176
VWidth: 0
Flags: HMW
LayerCount: 2
Fore
SplineSet
144 70 m 0
 131 52 123 36 104 17 c 0
 64 -23 -3 -20 21 56 c 0
 67 202 l 0
 19 202 l 0
 26 222 l 0
 73 222 l 0
 101 310 l 0
 145 310 l 0
 116 222 l 0
 168 222 l 0
 162 202 l 0
 110 202 l 0
 63 53 l 0
 47 1 77 1 128 81 c 0
 144 70 l 0
EndSplineSet
EndChar

StartChar: u
Encoding: 117 117 85
Width: 305
VWidth: 0
Flags: HMW
LayerCount: 2
Fore
SplineSet
60 170 m 0
 70 202 66 211 26 209 c 0
 30 226 l 0
 119 233 l 0
 64 53 l 0
 61 41 61 30 66 25 c 0
 77 14 103 14 136 47 c 0
 170 81 195 151 214 226 c 0
 259 226 l 0
 203 53 l 0
 187 1 217 1 263 77 c 0
 279 66 l 0
 270 53 259 36 242 17 c 0
 204 -23 138 -17 160 52 c 0
 109 -16 50 -16 31 3 c 0
 19 15 18 47 25 67 c 0
 60 170 l 0
EndSplineSet
EndChar

StartChar: v
Encoding: 118 118 86
Width: 259
VWidth: 0
Flags: HMW
LayerCount: 2
Fore
SplineSet
154 25 m 0
 113 -16 61 -16 37 8 c 0
 23 22 18 63 28 94 c 0
 51 170 l 0
 62 203 65 210 17 209 c 0
 21 226 l 0
 112 233 l 0
 66 81 l 0
 59 57 60 36 72 24 c 0
 89 7 110 7 137 34 c 0
 185 82 210 161 177 194 c 0
 164 207 164 218 172 226 c 0
 182 236 203 236 215 224 c 0
 239 200 207 78 154 25 c 0
EndSplineSet
EndChar

StartChar: w
Encoding: 119 119 87
Width: 389
VWidth: 0
Flags: HMW
LayerCount: 2
Fore
SplineSet
216 25 m 0
 228 13 246 13 268 35 c 0
 316 83 341 161 308 194 c 0
 295 207 295 218 303 226 c 0
 313 236 334 236 346 224 c 0
 370 200 338 79 285 26 c 0
 235 -24 160 -24 164 63 c 0
 114 -36 -19 -36 25 92 c 0
 52 170 l 0
 63 203 66 210 18 209 c 0
 22 226 l 0
 113 233 l 0
 63 79 l 0
 38 2 88 2 123 37 c 0
 160 74 183 135 201 226 c 0
 248 226 l 0
 219 149 214 96 210 82 c 0
 203 58 204 37 216 25 c 0
EndSplineSet
EndChar

StartChar: x
Encoding: 120 120 88
Width: 250
VWidth: 0
Flags: HMW
LayerCount: 2
Fore
SplineSet
-9 44 m 0
 -1 52 16 52 21 46 c 0
 25 42 25 32 33 25 c 0
 35 22 46 22 61 45 c 0
 73 62 84 87 95 103 c 0
 84 141 78 185 69 194 c 0
 60 203 36 181 20 153 c 0
 8 164 l 0
 19 177 27 195 45 213 c 0
 70 238 87 238 102 223 c 0
 116 209 116 188 127 150 c 0
 138 164 153 196 172 215 c 0
 194 237 217 237 229 225 c 0
 239 215 239 192 228 181 c 0
 220 173 203 173 196 180 c 0
 193 183 188 201 171 184 c 0
 154 167 143 143 132 127 c 0
 139 80 149 36 159 26 c 0
 172 13 190 34 214 71 c 0
 226 59 l 0
 217 47 210 33 192 15 c 0
 165 -12 137 -12 126 -1 c 0
 112 12 108 37 100 78 c 0
 89 62 74 29 55 10 c 0
 33 -12 2 -12 -10 0 c 0
 -20 10 -20 33 -9 44 c 0
EndSplineSet
EndChar

StartChar: y
Encoding: 121 121 89
Width: 250
VWidth: 0
Flags: HMW
LayerCount: 2
Fore
SplineSet
74 -70 m 0
 34 -110 -11 -110 -32 -89 c 0
 -43 -78 -43 -56 -32 -45 c 0
 -23 -36 -7 -36 1 -44 c 0
 18 -61 3 -70 9 -76 c 0
 16 -83 36 -83 61 -58 c 0
 77 -42 90 -19 101 0 c 0
 73 135 70 178 57 191 c 0
 47 201 36 194 14 145 c 0
 0 154 l 0
 13 177 23 205 40 222 c 0
 55 237 73 237 86 224 c 0
 102 208 110 158 133 52 c 0
 169 108 187 156 187 169 c 0
 187 186 178 212 188 222 c 0
 198 232 211 232 221 222 c 0
 245 198 190 117 156 51 c 0
 145 29 98 -46 74 -70 c 0
EndSplineSet
EndChar

StartChar: z
Encoding: 122 122 90
Width: 231
VWidth: 0
Flags: HMW
LayerCount: 2
Fore
SplineSet
19 41 m 0
 70 61 124 5 156 37 c 0
 164 45 174 64 177 72 c 0
 193 66 l 0
 185 49 184 34 163 13 c 0
 112 -38 53 18 11 23 c 0
 17 -15 -17 -15 -17 7 c 0
 -17 19 0 51 37 88 c 0
 76 127 109 126 166 177 c 0
 139 173 119 180 99 186 c 0
 88 189 68 205 52 189 c 0
 40 177 34 164 28 156 c 0
 14 167 l 0
 21 178 26 192 43 209 c 0
 75 240 92 239 135 221 c 0
 158 212 186 194 186 219 c 0
 186 234 200 236 206 230 c 0
 214 222 212 198 160 146 c 0
 98 84 49 85 19 41 c 0
EndSplineSet
EndChar

StartChar: braceleft
Encoding: 123 123 91
Width: 166
VWidth: 0
Flags: HMW
LayerCount: 2
Fore
SplineSet
30 16 m 0
 53 110 l 0
 59 136 51 143 29 154 c 0
 122 162 58 381 191 369 c 0
 103 350 151 173 60 154 c 0
 139 136 -2 -34 84 -58 c 0
 30 -62 18 -36 30 16 c 0
EndSplineSet
EndChar

StartChar: bar
Encoding: 124 124 92
Width: 303
VWidth: 0
Flags: HMW
LayerCount: 2
Fore
SplineSet
135 369 m 0
 169 369 l 0
 169 0 l 0
 135 0 l 0
 135 369 l 0
EndSplineSet
EndChar

StartChar: braceright
Encoding: 125 125 93
Width: 166
VWidth: 0
Flags: HMW
LayerCount: 2
Fore
SplineSet
113 157 m 0
 20 149 84 -70 -49 -58 c 0
 39 -39 -9 138 82 157 c 0
 3 175 144 345 58 369 c 0
 112 373 124 347 112 295 c 0
 89 201 l 0
 83 175 91 168 113 157 c 0
EndSplineSet
EndChar

StartChar: asciitilde
Encoding: 126 126 94
Width: 166
VWidth: 0
Flags: HMW
LayerCount: 2
Fore
SplineSet
125 275 m 0
 83 290 l 0
 62 298 47 291 41 272 c 0
 26 272 l 0
 35 328 78 327 91 322 c 0
 133 307 l 0
 154 299 169 306 175 325 c 0
 190 325 l 0
 181 269 138 270 125 275 c 0
EndSplineSet
EndChar

StartChar: uni008F
Encoding: 143 143 95
Width: 303
VWidth: 0
Flags: HMW
LayerCount: 2
Fore
SplineSet
200 244 m 0
 234 210 233 157 200 124 c 0
 168 92 114 92 82 124 c 0
 49 157 48 210 82 244 c 0
 114 276 168 276 200 244 c 0
EndSplineSet
EndChar

StartChar: uni0090
Encoding: 144 144 96
Width: 102
VWidth: 0
Flags: HMW
LayerCount: 2
Fore
SplineSet
119 375 m 0
 127 362 l 0
 102 349 64 323 62 293 c 0
 105 300 105 261 90 246 c 0
 78 234 54 234 40 248 c 0
 26 262 26 302 57 333 c 0
 79 355 98 365 119 375 c 0
EndSplineSet
EndChar

StartChar: uni0091
Encoding: 145 145 97
Width: 102
VWidth: 0
Flags: HMW
LayerCount: 2
Fore
SplineSet
18 244 m 0
 43 257 81 283 83 313 c 0
 40 306 40 345 55 360 c 0
 67 372 91 372 105 358 c 0
 119 344 119 304 88 273 c 0
 66 251 47 241 26 231 c 0
 18 244 l 0
EndSplineSet
EndChar

StartChar: uni0092
Encoding: 146 146 98
Width: 166
VWidth: 0
Flags: HMW
LayerCount: 2
Fore
SplineSet
87 62 m 0
 102 34 92 27 75 49 c 0
 21 119 l 0
 111 193 l 0
 128 207 138 196 121 179 c 0
 59 116 l 0
 87 62 l 0
EndSplineSet
EndChar

StartChar: uni0093
Encoding: 147 147 99
Width: 166
VWidth: 0
Flags: HMW
LayerCount: 2
Fore
SplineSet
30 56 m 0
 92 119 l 0
 64 173 l 0
 49 201 59 208 76 186 c 0
 130 116 l 0
 40 42 l 0
 23 28 13 39 30 56 c 0
EndSplineSet
EndChar

StartChar: uni0094
Encoding: 148 148 100
Width: 194
VWidth: 0
Flags: HMW
LayerCount: 2
Fore
SplineSet
119 375 m 0
 127 362 l 0
 102 349 64 323 62 293 c 0
 105 300 105 261 90 246 c 0
 78 234 54 234 40 248 c 0
 26 262 26 302 57 333 c 0
 79 355 98 365 119 375 c 0
209 375 m 0
 217 362 l 0
 192 349 154 323 152 293 c 0
 195 300 195 261 180 246 c 0
 168 234 144 234 130 248 c 0
 116 262 116 302 147 333 c 0
 169 355 188 365 209 375 c 0
EndSplineSet
EndChar

StartChar: uni0095
Encoding: 149 149 101
Width: 194
VWidth: 0
Flags: HMW
LayerCount: 2
Fore
SplineSet
88 273 m 0
 66 251 47 241 26 231 c 0
 18 244 l 0
 43 257 81 283 83 313 c 0
 40 306 40 345 55 360 c 0
 67 372 91 372 105 358 c 0
 119 344 119 304 88 273 c 0
116 231 m 0
 108 244 l 0
 133 257 171 283 173 313 c 0
 130 306 130 345 145 360 c 0
 157 372 181 372 195 358 c 0
 209 344 209 304 178 273 c 0
 156 251 137 241 116 231 c 0
EndSplineSet
EndChar

StartChar: uni0096
Encoding: 150 150 102
Width: 194
VWidth: 0
Flags: HMW
LayerCount: 2
Fore
SplineSet
64 -85 m 0
 56 -72 l 0
 81 -59 119 -33 121 -3 c 0
 78 -10 78 29 93 44 c 0
 105 56 129 56 143 42 c 0
 157 28 157 -12 126 -43 c 0
 104 -65 85 -75 64 -85 c 0
36 -43 m 0
 14 -65 -5 -75 -26 -85 c 0
 -34 -72 l 0
 -9 -59 29 -33 31 -3 c 0
 -12 -10 -12 29 3 44 c 0
 15 56 39 56 53 42 c 0
 67 28 67 -12 36 -43 c 0
EndSplineSet
EndChar

StartChar: uni0097
Encoding: 151 151 103
Width: 250
VWidth: 0
Flags: HMW
LayerCount: 2
Fore
SplineSet
-9 103 m 0
 -4 130 l 0
 259 130 l 0
 254 103 l 0
 -9 103 l 0
EndSplineSet
EndChar

StartChar: uni0098
Encoding: 152 152 104
Width: 500
VWidth: 0
Flags: HMW
LayerCount: 2
Fore
SplineSet
504 103 m 0
 -9 103 l 0
 -4 130 l 0
 509 130 l 0
 504 103 l 0
EndSplineSet
EndChar

StartChar: uni0099
Encoding: 153 153 105
Width: 303
VWidth: 0
Flags: HMW
LayerCount: 2
Fore
SplineSet
19 110 m 0
 19 143 l 0
 270 143 l 0
 270 110 l 0
 19 110 l 0
EndSplineSet
EndChar

StartChar: uni009A
Encoding: 154 154 106
Width: 490
VWidth: 0
Flags: HMW
LayerCount: 2
Fore
SplineSet
143 0 m 0
 101 0 83 7 61 29 c 0
 -13 103 17 233 88 304 c 0
 135 351 182 361 256 361 c 0
 482 361 l 0
 463 234 l 0
 440 234 l 0
 438 264 444 302 428 318 c 0
 412 334 389 338 368 338 c 0
 342 338 338 339 331 311 c 0
 299 195 l 0
 321 195 338 193 354 209 c 0
 373 228 377 245 384 258 c 0
 406 257 l 0
 360 97 l 0
 338 98 l 0
 347 125 345 150 329 166 c 0
 318 177 302 176 294 176 c 0
 260 54 l 0
 252 23 264 23 308 23 c 0
 337 23 364 27 390 53 c 0
 410 73 422 96 435 125 c 0
 456 121 l 0
 417 0 l 0
 143 0 l 0
205 50 m 0
 269 281 l 0
 273 296 273 313 260 326 c 0
 238 348 189 348 151 310 c 0
 86 245 45 99 102 42 c 0
 125 19 184 19 195 30 c 0
 201 36 204 44 205 50 c 0
EndSplineSet
EndChar

StartChar: uni009B
Encoding: 155 155 107
Width: 389
VWidth: 0
Flags: HMW
LayerCount: 2
Fore
SplineSet
350 45 m 0
 295 -23 198 -23 174 30 c 0
 134 -18 64 -18 29 17 c 0
 -8 54 -9 140 47 196 c 0
 97 246 168 246 208 194 c 0
 258 242 325 242 350 217 c 0
 368 199 368 164 344 140 c 0
 309 105 256 96 212 86 c 0
 212 68 210 42 226 26 c 0
 245 7 288 7 337 58 c 0
 350 45 l 0
162 205 m 0
 147 220 114 220 91 197 c 0
 45 151 30 52 62 20 c 0
 77 5 110 5 133 28 c 0
 179 74 194 173 162 205 c 0
257 196 m 0
 230 169 218 141 213 104 c 0
 254 112 283 123 302 142 c 0
 328 168 328 191 314 205 c 0
 302 217 278 217 257 196 c 0
EndSplineSet
EndChar

StartChar: uni009C
Encoding: 156 156 108
Width: 250
VWidth: 0
Flags: HMW
LayerCount: 2
Fore
SplineSet
249 228 m 0
 230 209 211 246 148 242 c 0
 140 208 138 176 148 150 c 0
 119 102 98 53 69 -69 c 0
 56 -69 l 0
 84 50 90 105 86 150 c 0
 115 180 126 217 134 242 c 0
 75 242 56 209 36 229 c 0
 25 240 25 255 37 267 c 0
 55 285 75 252 138 256 c 0
 156 313 131 345 151 365 c 0
 162 376 181 376 192 365 c 0
 201 356 201 341 184 318 c 0
 168 298 162 286 152 256 c 0
 211 256 232 284 250 266 c 0
 261 255 261 240 249 228 c 0
EndSplineSet
EndChar

StartChar: uni009D
Encoding: 157 157 109
Width: 250
VWidth: 0
Flags: HMW
LayerCount: 2
Fore
SplineSet
134 242 m 0
 75 242 56 209 36 229 c 0
 25 240 25 255 37 267 c 0
 55 285 75 252 138 256 c 0
 156 313 131 345 151 365 c 0
 162 376 181 376 192 365 c 0
 201 356 201 341 184 318 c 0
 168 298 162 286 152 256 c 0
 211 256 232 284 250 266 c 0
 261 255 261 240 249 228 c 0
 230 209 211 246 148 242 c 0
 140 208 138 176 148 152 c 0
 119 124 108 87 100 62 c 0
 159 62 178 95 198 75 c 0
 209 64 209 49 197 37 c 0
 179 19 159 52 96 48 c 0
 78 -9 103 -41 83 -61 c 0
 72 -72 53 -72 42 -61 c 0
 33 -52 33 -37 50 -14 c 0
 66 6 72 18 82 48 c 0
 23 48 2 17 -16 35 c 0
 -27 46 -27 61 -15 73 c 0
 5 93 23 58 86 62 c 0
 94 96 96 128 86 152 c 0
 115 180 126 217 134 242 c 0
EndSplineSet
EndChar

StartChar: uni009E
Encoding: 158 158 110
Width: 305
VWidth: 0
Flags: HMW
LayerCount: 2
Fore
SplineSet
-30 -103 m 0
 -1 -38 38 90 66 202 c 0
 16 202 l 0
 23 222 l 0
 70 222 l 0
 83 268 101 302 138 339 c 0
 176 377 234 377 260 351 c 0
 275 336 275 316 266 307 c 0
 252 293 236 293 225 304 c 0
 206 323 234 340 229 345 c 0
 220 354 186 354 168 336 c 0
 137 305 119 259 110 222 c 0
 177 222 l 0
 257 228 l 0
 201 53 l 0
 185 1 215 1 266 81 c 0
 282 70 l 0
 269 52 261 36 242 17 c 0
 202 -23 135 -20 159 56 c 0
 194 163 l 0
 205 196 208 203 160 202 c 0
 106 202 l 0
 91 150 56 10 23 -88 c 0
 -30 -103 l 0
EndSplineSet
EndChar

StartChar: uni009F
Encoding: 159 159 111
Width: 305
VWidth: 0
Flags: HMW
LayerCount: 2
Fore
SplineSet
-30 -103 m 0
 -1 -38 38 90 66 202 c 0
 16 202 l 0
 23 222 l 0
 72 222 l 0
 82 256 93 299 131 337 c 0
 170 376 225 376 254 356 c 0
 278 357 282 361 297 369 c 0
 201 53 l 0
 185 1 215 1 266 81 c 0
 282 70 l 0
 269 52 261 36 242 17 c 0
 202 -23 135 -20 159 56 c 0
 231 297 l 0
 205 322 241 330 228 343 c 0
 215 356 185 356 162 333 c 0
 138 309 127 279 111 222 c 0
 163 222 l 0
 157 202 l 0
 106 202 l 0
 91 150 56 10 23 -88 c 0
 -30 -103 l 0
-30 -103 m 0
 23 -88 l 0
 -30 -103 l 0
EndSplineSet
EndChar

StartChar: exclamdown
Encoding: 161 161 113
Width: 166
VWidth: 0
Flags: HMW
LayerCount: 2
Fore
SplineSet
84 174 m 0
 100 169 l 0
 39 -67 72 -67 44 -95 c 0
 33 -106 12 -106 3 -96 c 0
 -25 -69 32 -17 84 174 c 0
130 221 m 0
 118 209 98 209 86 221 c 0
 74 233 74 253 86 265 c 0
 98 277 118 277 130 265 c 0
 142 253 142 233 130 221 c 0
EndSplineSet
EndChar

StartChar: cent
Encoding: 162 162 114
Width: 278
VWidth: 0
Flags: HMW
LayerCount: 2
Fore
SplineSet
120 195 m 0
 66 141 63 47 100 22 c 0
 165 165 l 0
 174 207 202 190 196 204 c 0
 190 217 142 217 120 195 c 0
216 149 m 0
 206 139 188 139 177 150 c 0
 116 16 l 0
 149 6 175 34 198 62 c 0
 211 51 l 0
 176 9 145 -14 106 -7 c 0
 77 -71 l 0
 58 -71 l 0
 88 -5 l 0
 6 10 19 135 76 192 c 0
 122 238 171 238 193 227 c 0
 222 292 l 0
 241 292 l 0
 208 218 l 0
 236 199 232 165 216 149 c 0
EndSplineSet
EndChar

StartChar: sterling
Encoding: 163 163 115
Width: 278
VWidth: 0
Flags: HMW
LayerCount: 2
Fore
SplineSet
75 36 m 0
 54 56 31 61 20 50 c 0
 11 41 11 23 19 15 c 0
 30 4 62 8 75 36 c 0
216 257 m 0
 208 265 208 282 214 289 c 0
 220 296 246 309 232 323 c 0
 214 341 187 341 164 318 c 0
 136 290 130 246 136 181 c 0
 203 181 l 0
 198 161 l 0
 134 161 l 0
 137 122 124 71 107 51 c 0
 167 20 206 20 244 72 c 0
 261 63 l 0
 218 -26 146 -24 93 23 c 0
 62 -14 19 -13 6 0 c 0
 -8 14 -8 48 9 65 c 0
 23 79 49 79 85 62 c 0
 96 98 91 132 89 161 c 0
 24 161 l 0
 30 181 l 0
 88 181 l 0
 83 238 94 292 126 324 c 0
 163 361 227 361 257 332 c 0
 278 310 278 273 261 256 c 0
 249 244 229 244 216 257 c 0
EndSplineSet
EndChar

StartChar: currency
Encoding: 164 164 116
Width: 278
VWidth: 0
Flags: HMW
LayerCount: 2
Fore
SplineSet
204 111 m 0
 240 147 240 205 204 241 c 0
 168 277 110 277 74 241 c 0
 38 205 38 147 74 111 c 0
 110 75 168 75 204 111 c 0
234 102 m 0
 265 71 l 0
 245 51 l 0
 215 81 l 0
 170 46 110 46 63 82 c 0
 32 51 l 0
 12 71 l 0
 42 101 l 0
 10 147 10 207 43 251 c 0
 12 282 l 0
 32 302 l 0
 63 271 l 0
 110 306 170 306 214 271 c 0
 245 302 l 0
 265 282 l 0
 234 251 l 0
 270 208 270 148 234 102 c 0
EndSplineSet
EndChar

StartChar: yen
Encoding: 165 165 117
Width: 278
VWidth: 0
Flags: HMW
LayerCount: 2
Fore
SplineSet
133 48 m 0
 127 21 131 16 180 17 c 0
 176 0 l 0
 36 0 l 0
 40 17 l 0
 75 15 85 22 90 44 c 0
 103 96 l 0
 20 96 l 0
 26 116 l 0
 108 116 l 0
 114 147 l 0
 112 158 l 0
 35 158 l 0
 41 178 l 0
 106 178 l 0
 65 301 l 0
 56 330 45 337 20 336 c 0
 24 353 l 0
 144 353 l 0
 140 336 l 0
 108 337 97 332 106 306 c 0
 148 172 l 0
 220 283 l 0
 241 315 236 340 196 336 c 0
 200 353 l 0
 312 353 l 0
 308 336 l 0
 280 324 266 317 242 280 c 0
 175 178 l 0
 246 178 l 0
 241 158 l 0
 163 158 l 0
 157 149 l 0
 149 116 l 0
 231 116 l 0
 226 96 l 0
 144 96 l 0
 133 48 l 0
EndSplineSet
EndChar

StartChar: brokenbar
Encoding: 166 166 118
Width: 303
VWidth: 0
Flags: HMW
LayerCount: 2
Fore
SplineSet
135 369 m 0
 169 369 l 0
 169 217 l 0
 135 217 l 0
 135 369 l 0
135 0 m 0
 135 152 l 0
 169 152 l 0
 169 0 l 0
 135 0 l 0
EndSplineSet
EndChar

StartChar: section
Encoding: 167 167 119
Width: 250
VWidth: 0
Flags: HMW
LayerCount: 2
Fore
SplineSet
95 -57 m 0
 120 -32 119 16 61 74 c 0
 11 124 11 178 38 205 c 0
 63 230 91 228 112 223 c 0
 73 266 73 315 101 343 c 0
 135 377 194 377 222 349 c 0
 243 328 243 298 230 285 c 0
 220 275 201 275 193 283 c 0
 183 293 183 312 190 319 c 0
 198 327 217 327 198 346 c 0
 186 358 151 358 139 346 c 0
 114 321 115 273 173 215 c 0
 223 165 223 111 196 84 c 0
 171 59 143 61 122 66 c 0
 161 23 161 -26 133 -54 c 0
 99 -88 40 -88 12 -60 c 0
 -9 -39 -9 -9 4 4 c 0
 14 14 33 14 41 6 c 0
 51 -4 51 -23 44 -30 c 0
 36 -38 17 -38 36 -57 c 0
 48 -69 83 -69 95 -57 c 0
63 199 m 0
 47 183 47 148 100 95 c 0
 125 70 151 70 171 90 c 0
 187 106 187 141 134 194 c 0
 109 219 83 219 63 199 c 0
EndSplineSet
EndChar

StartChar: dieresis
Encoding: 168 168 120
Width: 166
VWidth: 0
Flags: HMW
LayerCount: 2
Fore
SplineSet
172 280 m 0
 162 270 148 270 138 280 c 0
 128 290 128 304 138 314 c 0
 148 324 162 324 172 314 c 0
 182 304 182 290 172 280 c 0
70 280 m 0
 60 270 46 270 36 280 c 0
 26 290 26 304 36 314 c 0
 46 324 60 324 70 314 c 0
 80 304 80 290 70 280 c 0
EndSplineSet
EndChar

StartChar: copyright
Encoding: 169 169 121
Width: 373
VWidth: 0
Flags: HMW
LayerCount: 2
Fore
SplineSet
248 216 m 0
 246 231 242 243 231 254 c 0
 212 273 180 273 160 253 c 0
 129 222 129 148 162 115 c 0
 186 91 228 91 254 130 c 0
 266 124 l 0
 235 64 166 64 125 105 c 0
 87 143 85 218 126 259 c 0
 159 292 210 292 261 269 c 0
 261 216 l 0
 248 216 l 0
307 42 m 0
 240 -25 134 -25 67 42 c 0
 -7 116 -7 245 67 319 c 0
 134 386 240 386 307 319 c 0
 381 245 381 116 307 42 c 0
286 58 m 0
 352 124 352 237 286 303 c 0
 232 357 142 357 88 303 c 0
 22 237 22 124 88 58 c 0
 142 4 232 4 286 58 c 0
EndSplineSet
EndChar

StartChar: ordfeminine
Encoding: 170 170 122
Width: 211
VWidth: 0
Flags: HMW
LayerCount: 2
Fore
SplineSet
146 346 m 0
 137 355 115 355 99 339 c 0
 73 313 63 260 81 242 c 0
 90 233 108 233 125 250 c 0
 146 271 161 331 146 346 c 0
202 275 m 0
 211 269 l 0
 178 211 141 211 137 244 c 0
 111 216 73 216 55 234 c 0
 35 254 35 307 74 346 c 0
 107 379 152 378 164 336 c 0
 174 363 l 0
 200 363 l 0
 163 259 l 0
 152 227 176 227 202 275 c 0
194 167 m 0
 42 167 l 0
 42 186 l 0
 194 186 l 0
 194 167 l 0
EndSplineSet
EndChar

StartChar: guillemotleft
Encoding: 171 171 123
Width: 213
VWidth: 0
Flags: HMW
LayerCount: 2
Fore
SplineSet
181 193 m 0
 198 207 208 196 191 179 c 0
 129 116 l 0
 157 62 l 0
 172 34 162 27 145 49 c 0
 91 119 l 0
 181 193 l 0
82 193 m 0
 99 207 109 196 92 179 c 0
 30 116 l 0
 58 62 l 0
 73 34 63 27 46 49 c 0
 -8 119 l 0
 82 193 l 0
EndSplineSet
EndChar

StartChar: logicalnot
Encoding: 172 172 124
Width: 303
VWidth: 0
Flags: HMW
LayerCount: 2
Fore
SplineSet
239 157 m 0
 21 157 l 0
 21 191 l 0
 273 191 l 0
 273 56 l 0
 239 56 l 0
 239 157 l 0
EndSplineSet
EndChar

StartChar: uni00AD
Encoding: 173 173 125
Width: 166
VWidth: 0
Flags: HMW
LayerCount: 2
Fore
SplineSet
130 137 m 0
 119 101 l 0
 16 101 l 0
 27 137 l 0
 130 137 l 0
EndSplineSet
EndChar

StartChar: registered
Encoding: 174 174 126
Width: 373
VWidth: 0
Flags: HMW
LayerCount: 2
Fore
SplineSet
88 58 m 0
 142 4 232 4 286 58 c 0
 352 124 352 237 286 303 c 0
 232 357 142 357 88 303 c 0
 22 237 22 124 88 58 c 0
67 42 m 0
 -7 116 -7 245 67 319 c 0
 134 386 240 386 307 319 c 0
 381 245 381 116 307 42 c 0
 240 -25 134 -25 67 42 c 0
164 183 m 0
 194 183 202 184 213 195 c 0
 230 212 230 245 214 261 c 0
 204 271 195 271 185 271 c 0
 162 271 164 271 164 251 c 0
 164 183 l 0
215 121 m 0
 202 154 l 0
 195 171 187 171 164 171 c 0
 164 112 l 0
 164 92 162 92 185 92 c 0
 185 82 l 0
 110 82 l 0
 110 92 l 0
 134 92 131 92 131 112 c 0
 131 251 l 0
 131 271 134 271 110 271 c 0
 110 281 l 0
 189 281 l 0
 218 281 232 279 248 263 c 0
 267 244 267 190 211 178 c 0
 260 153 241 96 279 92 c 0
 279 82 l 0
 251 82 l 0
 235 82 229 86 215 121 c 0
EndSplineSet
EndChar

StartChar: macron
Encoding: 175 175 127
Width: 166
VWidth: 0
Flags: HMW
LayerCount: 2
Fore
SplineSet
30 305 m 0
 181 305 l 0
 176 279 l 0
 25 279 l 0
 30 305 l 0
EndSplineSet
EndChar

StartChar: degree
Encoding: 176 176 128
Width: 200
VWidth: 0
Flags: HMW
LayerCount: 2
Fore
SplineSet
74 241 m 0
 94 221 127 221 146 241 c 0
 166 260 166 293 146 313 c 0
 127 333 94 333 74 313 c 0
 55 293 55 260 74 241 c 0
58 223 m 0
 28 253 28 301 58 331 c 0
 86 360 134 360 163 331 c 0
 193 301 193 253 163 223 c 0
 134 194 86 194 58 223 c 0
EndSplineSet
EndChar

StartChar: plusminus
Encoding: 177 177 129
Width: 303
VWidth: 0
Flags: HMW
LayerCount: 2
Fore
SplineSet
19 136 m 0
 19 169 l 0
 128 169 l 0
 128 245 l 0
 162 245 l 0
 162 169 l 0
 270 169 l 0
 270 136 l 0
 162 136 l 0
 162 60 l 0
 128 60 l 0
 128 136 l 0
 19 136 l 0
19 0 m 0
 19 34 l 0
 270 34 l 0
 270 0 l 0
 19 0 l 0
EndSplineSet
EndChar

StartChar: uni00B2
Encoding: 178 178 130
Width: 166
VWidth: 0
Flags: HMW
LayerCount: 2
Fore
SplineSet
143 201 m 0
 153 196 l 0
 129 140 l 0
 -5 140 l 0
 2 177 70 205 109 244 c 0
 143 278 143 315 131 327 c 0
 116 342 81 342 61 322 c 0
 40 301 66 300 72 294 c 0
 78 288 78 276 69 267 c 0
 62 260 50 260 42 268 c 0
 30 280 30 306 52 328 c 0
 81 357 136 357 161 332 c 0
 177 316 177 279 150 252 c 0
 119 221 60 199 28 166 c 0
 98 166 l 0
 123 166 125 168 143 201 c 0
EndSplineSet
EndChar

StartChar: uni00B3
Encoding: 179 179 131
Width: 166
VWidth: 0
Flags: HMW
LayerCount: 2
Fore
SplineSet
29 156 m 0
 44 141 81 141 102 162 c 0
 124 184 124 221 110 235 c 0
 99 246 84 239 79 239 c 0
 67 239 67 254 81 254 c 0
 86 254 106 248 124 266 c 0
 143 285 143 317 134 326 c 0
 117 343 89 343 75 329 c 0
 57 311 95 309 74 288 c 0
 68 282 56 282 50 288 c 0
 41 297 41 315 55 329 c 0
 82 356 140 356 162 334 c 0
 180 316 180 263 117 247 c 0
 160 237 163 187 138 162 c 0
 104 128 39 128 14 153 c 0
 -1 168 -1 188 10 199 c 0
 18 207 33 207 40 200 c 0
 46 194 46 182 39 175 c 0
 36 172 18 167 29 156 c 0
EndSplineSet
EndChar

StartChar: acute
Encoding: 180 180 132
Width: 166
VWidth: 0
Flags: HMW
LayerCount: 2
Fore
SplineSet
141 336 m 0
 164 363 191 331 169 314 c 0
 80 260 l 0
 66 260 l 0
 141 336 l 0
EndSplineSet
EndChar

StartChar: mu
Encoding: 181 181 133
Width: 305
VWidth: 0
Flags: HMW
LayerCount: 2
Fore
SplineSet
24 15 m 0
 13 -11 5 -56 5 -64 c 0
 4 -110 -40 -110 -36 -81 c 0
 -32 -48 -15 -47 -2 -10 c 0
 60 170 l 0
 70 202 66 211 26 209 c 0
 30 226 l 0
 119 233 l 0
 64 53 l 0
 61 41 61 30 66 25 c 0
 77 14 103 14 136 47 c 0
 170 81 195 151 214 226 c 0
 259 226 l 0
 203 53 l 0
 187 1 217 1 263 77 c 0
 278 66 l 0
 269 53 259 36 242 17 c 0
 204 -23 138 -17 160 52 c 0
 106 -20 38 -20 24 15 c 0
EndSplineSet
EndChar

StartChar: paragraph
Encoding: 182 182 134
Width: 325
VWidth: 0
Flags: HMW
LayerCount: 2
Fore
SplineSet
142 209 m 0
 182 353 l 0
 166 355 149 351 139 341 c 0
 119 321 90 237 110 217 c 0
 119 208 130 209 142 209 c 0
140 198 m 0
 102 198 80 199 58 221 c 0
 36 243 36 297 80 341 c 0
 106 367 139 369 186 369 c 0
 323 369 l 0
 318 353 l 0
 289 353 l 0
 197 16 l 0
 230 16 l 0
 225 0 l 0
 48 0 l 0
 53 16 l 0
 90 16 l 0
 140 198 l 0
120 16 m 0
 167 16 l 0
 259 353 l 0
 212 353 l 0
 120 16 l 0
EndSplineSet
EndChar

StartChar: periodcentered
Encoding: 183 183 135
Width: 139
VWidth: 0
Flags: HMW
LayerCount: 2
Fore
SplineSet
92 149 m 0
 104 137 104 117 92 105 c 0
 80 93 60 93 48 105 c 0
 36 117 36 137 48 149 c 0
 60 161 80 161 92 149 c 0
EndSplineSet
EndChar

StartChar: cedilla
Encoding: 184 184 136
Width: 166
VWidth: 0
Flags: HMW
LayerCount: 2
Fore
SplineSet
9 -89 m 0
 44 -98 54 -101 67 -88 c 0
 76 -79 76 -67 68 -59 c 0
 59 -50 47 -50 33 -55 c 0
 28 -50 l 0
 60 -5 l 0
 77 -5 l 0
 57 -35 l 0
 73 -33 85 -34 95 -44 c 0
 112 -61 112 -84 97 -99 c 0
 78 -118 47 -118 2 -103 c 0
 9 -89 l 0
EndSplineSet
EndChar

StartChar: uni00B9
Encoding: 185 185 137
Width: 166
VWidth: 0
Flags: HMW
LayerCount: 2
Fore
SplineSet
68 314 m 0
 72 325 l 0
 98 328 123 335 146 350 c 0
 155 350 l 0
 97 172 l 0
 91 155 96 151 137 151 c 0
 134 140 l 0
 22 140 l 0
 24 151 l 0
 51 150 62 153 68 170 c 0
 113 298 l 0
 120 318 105 314 68 314 c 0
EndSplineSet
EndChar

StartChar: ordmasculine
Encoding: 186 186 138
Width: 186
VWidth: 0
Flags: HMW
LayerCount: 2
Fore
SplineSet
171 351 m 0
 194 328 194 283 152 241 c 0
 123 212 83 212 57 238 c 0
 35 260 35 307 74 346 c 0
 104 376 146 376 171 351 c 0
127 241 m 0
 163 277 163 337 148 352 c 0
 138 362 113 362 99 348 c 0
 66 315 67 251 77 241 c 0
 91 227 113 227 127 241 c 0
176 167 m 0
 42 167 l 0
 42 186 l 0
 176 186 l 0
 176 167 l 0
EndSplineSet
EndChar

StartChar: guillemotright
Encoding: 187 187 139
Width: 213
VWidth: 0
Flags: HMW
LayerCount: 2
Fore
SplineSet
135 173 m 0
 120 201 130 208 147 186 c 0
 201 116 l 0
 111 42 l 0
 94 28 84 39 101 56 c 0
 163 119 l 0
 135 173 l 0
1 56 m 0
 63 119 l 0
 35 173 l 0
 20 201 30 208 47 186 c 0
 101 116 l 0
 11 42 l 0
 -6 28 -16 39 1 56 c 0
EndSplineSet
EndChar

StartChar: onequarter
Encoding: 188 188 140
Width: 417
VWidth: 0
Flags: HMW
LayerCount: 2
Fore
SplineSet
63 314 m 0
 67 325 l 0
 93 328 118 335 141 350 c 0
 150 350 l 0
 92 172 l 0
 86 155 91 151 132 151 c 0
 129 140 l 0
 17 140 l 0
 19 151 l 0
 46 150 57 153 63 170 c 0
 108 298 l 0
 115 318 100 314 63 314 c 0
296 11 m 0
 325 13 327 13 333 30 c 0
 342 55 l 0
 253 55 l 0
 253 69 l 0
 404 210 l 0
 417 210 l 0
 374 69 l 0
 411 69 l 0
 407 55 l 0
 369 55 l 0
 362 32 l 0
 356 13 366 12 389 11 c 0
 386 0 l 0
 294 0 l 0
 296 11 l 0
146 -9 m 0
 117 -9 l 0
 307 353 l 0
 336 353 l 0
 146 -9 l 0
346 69 m 0
 377 165 l 0
 271 69 l 0
 346 69 l 0
EndSplineSet
EndChar

StartChar: onehalf
Encoding: 189 189 141
Width: 417
VWidth: 0
Flags: HMW
LayerCount: 2
Fore
SplineSet
63 314 m 0
 67 325 l 0
 93 328 118 335 141 350 c 0
 150 350 l 0
 92 172 l 0
 86 155 91 151 132 151 c 0
 129 140 l 0
 17 140 l 0
 19 151 l 0
 46 150 57 153 63 170 c 0
 108 298 l 0
 115 318 100 314 63 314 c 0
349 26 m 0
 374 26 376 28 394 61 c 0
 404 56 l 0
 380 0 l 0
 246 0 l 0
 253 37 321 65 360 104 c 0
 394 138 394 175 382 187 c 0
 367 202 332 202 312 182 c 0
 291 161 317 160 323 154 c 0
 329 148 329 136 320 127 c 0
 313 120 301 120 293 128 c 0
 281 140 281 166 303 188 c 0
 332 217 387 217 412 192 c 0
 428 176 428 139 401 112 c 0
 370 81 311 59 279 26 c 0
 349 26 l 0
336 353 m 0
 146 -9 l 0
 117 -9 l 0
 307 353 l 0
 336 353 l 0
EndSplineSet
EndChar

StartChar: threequarters
Encoding: 190 190 142
Width: 417
VWidth: 0
Flags: HMW
LayerCount: 2
Fore
SplineSet
50 288 m 0
 41 297 41 315 55 329 c 0
 82 356 140 356 162 334 c 0
 180 316 180 263 117 247 c 0
 160 237 163 187 138 162 c 0
 104 128 39 128 14 153 c 0
 -1 168 -1 188 10 199 c 0
 18 207 33 207 40 200 c 0
 46 194 46 182 39 175 c 0
 36 172 18 167 29 156 c 0
 44 141 81 141 102 162 c 0
 124 184 124 221 110 235 c 0
 99 246 84 239 79 239 c 0
 67 239 67 254 81 254 c 0
 86 254 106 248 124 266 c 0
 143 285 143 317 134 326 c 0
 117 343 89 343 75 329 c 0
 57 311 95 309 74 288 c 0
 68 282 56 282 50 288 c 0
363 32 m 0
 362 27 360 21 362 18 c 0
 364 14 371 13 377 12 c 0
 382 11 386 11 390 11 c 0
 387 0 l 0
 295 0 l 0
 297 11 l 0
 301 11 305 12 310 12 c 0
 316 13 323 13 327 17 c 0
 330 20 332 25 334 30 c 0
 343 55 l 0
 254 55 l 0
 254 69 l 0
 405 210 l 0
 418 210 l 0
 375 69 l 0
 412 69 l 0
 408 55 l 0
 370 55 l 0
 363 32 l 0
150 -9 m 0
 121 -9 l 0
 311 353 l 0
 340 353 l 0
 150 -9 l 0
347 69 m 0
 378 165 l 0
 272 69 l 0
 347 69 l 0
EndSplineSet
EndChar

StartChar: questiondown
Encoding: 191 191 143
Width: 222
VWidth: 0
Flags: HMW
LayerCount: 2
Fore
SplineSet
109 265 m 0
 121 277 141 277 153 265 c 0
 165 253 165 233 153 221 c 0
 141 209 121 209 109 221 c 0
 97 233 97 253 109 265 c 0
154 7 m 0
 158 -20 153 -55 128 -80 c 0
 98 -110 45 -110 20 -85 c 0
 -3 -62 -3 1 37 41 c 0
 59 63 95 77 118 100 c 0
 132 114 132 136 126 142 c 0
 111 157 79 157 67 114 c 0
 52 117 l 0
 66 175 119 175 138 156 c 0
 159 135 159 92 120 53 c 0
 98 31 82 23 58 -1 c 0
 27 -32 27 -62 40 -75 c 0
 59 -94 91 -94 117 -68 c 0
 134 -51 140 -23 139 4 c 0
 154 7 l 0
EndSplineSet
EndChar

StartChar: AE
Encoding: 198 198 150
Width: 435
VWidth: 0
Flags: HMW
LayerCount: 2
Fore
SplineSet
222 332 m 0
 96 156 l 0
 187 156 l 0
 232 316 l 0
 239 340 228 341 222 332 c 0
118 338 m 0
 122 361 l 0
 435 361 l 0
 416 234 l 0
 393 234 l 0
 391 264 397 302 381 318 c 0
 365 334 342 338 321 338 c 0
 295 338 291 339 284 311 c 0
 252 195 l 0
 274 195 291 193 307 209 c 0
 326 228 330 245 337 258 c 0
 359 257 l 0
 313 97 l 0
 291 98 l 0
 300 125 298 150 282 166 c 0
 271 177 255 176 247 176 c 0
 213 54 l 0
 205 23 217 23 261 23 c 0
 290 23 317 27 343 53 c 0
 363 73 375 96 388 125 c 0
 409 121 l 0
 370 0 l 0
 113 0 l 0
 113 23 l 0
 144 23 151 26 158 50 c 0
 182 134 l 0
 80 134 l 0
 32 67 l 0
 13 40 17 24 61 23 c 0
 60 0 l 0
 -46 0 l 0
 -43 23 l 0
 -23 22 -6 51 8 70 c 0
 168 294 l 0
 178 308 185 343 118 338 c 0
EndSplineSet
EndChar

StartChar: Ccedilla
Encoding: 199 199 151
Width: 361
VWidth: 0
Flags: HMW
LayerCount: 2
Fore
SplineSet
174 -8 m 0
 156 -35 l 0
 172 -33 184 -34 194 -44 c 0
 211 -61 211 -84 196 -99 c 0
 177 -118 146 -118 101 -103 c 0
 108 -89 l 0
 143 -98 153 -101 166 -88 c 0
 175 -79 175 -67 167 -59 c 0
 158 -50 146 -50 132 -55 c 0
 127 -50 l 0
 157 -8 l 0
 131 -8 90 4 60 34 c 0
 -8 102 16 239 90 313 c 0
 162 385 267 385 307 327 c 0
 339 361 l 0
 357 361 l 0
 325 214 l 0
 305 214 l 0
 304 254 299 300 274 325 c 0
 243 356 183 356 147 320 c 0
 88 261 47 98 102 42 c 0
 140 5 214 5 258 49 c 0
 278 69 287 89 294 107 c 0
 313 98 l 0
 303 79 297 58 277 38 c 0
 244 5 211 -5 174 -8 c 0
EndSplineSet
EndChar

StartChar: Eth
Encoding: 208 208 160
Width: 389
VWidth: 0
Flags: HMW
LayerCount: 2
Fore
SplineSet
92 54 m 0
 84 25 92 23 140 23 c 0
 184 23 208 27 236 55 c 0
 291 110 334 265 285 314 c 0
 264 335 242 338 218 338 c 0
 175 338 169 334 163 311 c 0
 131 196 l 0
 220 196 l 0
 214 175 l 0
 125 175 l 0
 92 54 l 0
37 50 m 0
 72 175 l 0
 22 175 l 0
 26 196 l 0
 77 196 l 0
 108 307 l 0
 116 335 110 338 59 338 c 0
 64 361 l 0
 209 361 l 0
 253 362 297 354 327 324 c 0
 389 262 380 139 302 61 c 0
 247 6 199 0 135 0 c 0
 -18 0 l 0
 -13 23 l 0
 21 23 30 24 37 50 c 0
EndSplineSet
EndChar

StartChar: multiply
Encoding: 215 215 167
Width: 303
VWidth: 0
Flags: HMW
LayerCount: 2
Fore
SplineSet
45 248 m 0
 145 148 l 0
 245 248 l 0
 269 224 l 0
 169 124 l 0
 269 24 l 0
 245 0 l 0
 145 100 l 0
 45 0 l 0
 21 24 l 0
 121 124 l 0
 21 224 l 0
 45 248 l 0
EndSplineSet
EndChar

StartChar: Oslash
Encoding: 216 216 168
Width: 389
VWidth: 0
Flags: HMW
LayerCount: 2
Fore
SplineSet
90 311 m 0
 162 383 265 383 317 343 c 0
 346 379 l 0
 371 379 l 0
 331 330 l 0
 394 267 374 127 298 51 c 0
 227 -20 130 -20 77 15 c 0
 29 -44 l 0
 4 -44 l 0
 61 27 l 0
 -7 95 14 235 90 311 c 0
294 315 m 0
 275 362 196 362 149 315 c 0
 86 252 69 117 87 59 c 0
 294 315 l 0
303 295 m 0
 97 40 l 0
 119 2 194 2 239 47 c 0
 302 110 317 244 303 295 c 0
EndSplineSet
EndChar

StartChar: Thorn
Encoding: 222 222 174
Width: 333
VWidth: 0
Flags: HMW
LayerCount: 2
Fore
SplineSet
244 242 m 0
 227 261 204 262 195 262 c 0
 158 262 149 261 142 235 c 0
 106 104 l 0
 150 104 l 0
 183 104 211 107 232 128 c 0
 263 159 263 223 244 242 c 0
186 282 m 0
 235 282 266 276 287 255 c 0
 320 222 320 158 281 119 c 0
 248 86 204 84 150 84 c 0
 100 84 l 0
 92 54 l 0
 84 26 90 23 140 23 c 0
 136 0 l 0
 -18 0 l 0
 -14 23 l 0
 21 23 30 24 37 50 c 0
 108 307 l 0
 116 335 110 338 60 338 c 0
 64 361 l 0
 214 361 l 0
 210 338 l 0
 181 340 168 335 162 311 c 0
 155 282 l 0
 186 282 l 0
EndSplineSet
EndChar

StartChar: germandbls
Encoding: 223 223 175
Width: 278
VWidth: 0
Flags: HMW
LayerCount: 2
Fore
SplineSet
145 338 m 0
 108 301 68 77 10 -96 c 0
 -38 -103 l 0
 24 38 59 282 119 342 c 0
 153 376 218 377 246 349 c 0
 275 320 275 225 186 201 c 0
 191 197 201 192 211 182 c 0
 241 152 241 68 194 21 c 0
 158 -15 111 -15 88 8 c 0
 74 22 74 44 86 56 c 0
 94 64 112 64 119 57 c 0
 142 34 109 24 122 11 c 0
 127 6 139 6 153 20 c 0
 176 43 209 150 171 188 c 0
 164 195 149 199 144 199 c 0
 126 197 126 216 137 216 c 0
 143 216 167 200 193 226 c 0
 222 255 236 316 210 342 c 0
 197 355 162 355 145 338 c 0
EndSplineSet
EndChar

StartChar: aring
Encoding: 229 229 181
Width: 287
VWidth: 0
Flags: HMW
LayerCount: 2
Fore
SplineSet
141 282 m 0
 154 269 176 269 189 282 c 0
 202 295 202 317 189 330 c 0
 176 343 154 343 141 330 c 0
 128 317 128 295 141 282 c 0
130 270 m 0
 110 290 110 322 130 342 c 0
 149 361 181 361 200 342 c 0
 220 322 220 290 200 270 c 0
 181 251 149 251 130 270 c 0
EndSplineSet
Refer: 65 97 N 1 0 0 1 0 0 0
EndChar

StartChar: ae
Encoding: 230 230 182
Width: 361
VWidth: 0
Flags: HMW
LayerCount: 2
Fore
SplineSet
149 110 m 0
 104 104 70 97 52 79 c 0
 32 59 32 36 42 25 c 0
 58 10 89 10 119 40 c 0
 141 62 145 84 149 110 c 0
229 194 m 0
 208 173 193 138 191 111 c 0
 229 118 258 125 276 143 c 0
 298 165 298 191 285 204 c 0
 273 216 251 216 229 194 c 0
145 40 m 0
 105 -17 27 -17 2 8 c 0
 -14 24 -14 62 9 85 c 0
 36 112 95 123 154 127 c 0
 164 164 163 186 150 199 c 0
 131 218 88 218 74 204 c 0
 64 194 102 181 76 155 c 0
 65 144 49 144 38 155 c 0
 29 164 29 193 45 209 c 0
 79 243 154 243 190 199 c 0
 254 241 296 241 321 216 c 0
 340 197 340 164 314 138 c 0
 284 108 234 102 186 92 c 0
 181 64 178 44 195 27 c 0
 216 6 257 6 307 55 c 0
 320 42 l 0
 306 28 293 13 274 4 c 0
 235 -15 173 -13 153 21 c 0
 150 27 147 33 145 40 c 0
EndSplineSet
EndChar

StartChar: ccedilla
Encoding: 231 231 183
Width: 222
VWidth: 0
Flags: HMW
LayerCount: 2
Fore
SplineSet
49 192 m 0
 100 243 159 243 189 213 c 0
 205 197 205 165 190 150 c 0
 179 139 163 139 152 150 c 0
 144 158 144 175 152 183 c 0
 158 189 180 194 169 204 c 0
 153 220 118 220 93 195 c 0
 39 141 41 56 68 29 c 0
 89 8 130 8 172 64 c 0
 185 53 l 0
 164 17 126 -5 92 -8 c 0
 74 -35 l 0
 90 -33 102 -34 112 -44 c 0
 129 -61 129 -84 114 -99 c 0
 95 -118 64 -118 19 -103 c 0
 26 -89 l 0
 61 -98 71 -101 84 -88 c 0
 93 -79 93 -67 85 -59 c 0
 76 -50 64 -50 50 -55 c 0
 45 -50 l 0
 75 -8 l 0
 56 -6 43 -4 28 11 c 0
 -9 49 -8 135 49 192 c 0
EndSplineSet
EndChar

StartChar: igrave
Encoding: 236 236 188
Width: 166
VWidth: 0
Flags: HMW
LayerCount: 2
Fore
SplineSet
19 56 m 0
 56 170 l 0
 67 203 70 210 22 209 c 0
 26 226 l 0
 119 233 l 0
 61 53 l 0
 45 1 75 1 126 81 c 0
 142 70 l 0
 129 52 121 36 102 17 c 0
 62 -23 -5 -20 19 56 c 0
EndSplineSet
Refer: 64 96 N 1 0 0 1 -7 -1 0
EndChar

StartChar: eth
Encoding: 240 240 192
Width: 250
VWidth: 0
Flags: HMW
LayerCount: 2
Fore
SplineSet
177 224 m 0
 174 246 160 275 145 296 c 0
 109 276 l 0
 94 293 l 0
 132 313 l 0
 121 328 97 348 81 354 c 0
 81 369 l 0
 117 365 133 347 157 327 c 0
 194 347 l 0
 209 330 l 0
 171 310 l 0
 242 218 242 89 184 31 c 0
 134 -19 62 -19 29 15 c 0
 -8 52 -8 140 46 194 c 0
 93 241 151 241 177 224 c 0
138 30 m 0
 176 68 198 172 167 203 c 0
 150 220 117 220 94 197 c 0
 49 152 34 51 63 22 c 0
 80 5 113 5 138 30 c 0
EndSplineSet
EndChar

StartChar: divide
Encoding: 247 247 199
Width: 303
VWidth: 0
Flags: HMW
LayerCount: 2
Fore
SplineSet
124 51 m 0
 136 63 154 63 166 51 c 0
 178 39 178 21 166 9 c 0
 154 -3 136 -3 124 9 c 0
 112 21 112 39 124 51 c 0
166 243 m 0
 178 231 178 213 166 201 c 0
 154 189 136 189 124 201 c 0
 112 213 112 231 124 243 c 0
 136 255 154 255 166 243 c 0
19 143 m 0
 271 143 l 0
 271 110 l 0
 19 110 l 0
 19 143 l 0
EndSplineSet
EndChar

StartChar: oslash
Encoding: 248 248 200
Width: 250
VWidth: 0
Flags: HMW
LayerCount: 2
Fore
SplineSet
69 16 m 0
 80 6 113 6 135 28 c 0
 181 74 190 158 173 194 c 0
 69 16 l 0
56 27 m 0
 161 207 l 0
 148 219 115 219 93 197 c 0
 47 151 37 69 56 27 c 0
44 6 m 0
 -11 37 -12 137 47 196 c 0
 89 238 143 238 172 226 c 0
 201 275 l 0
 220 275 l 0
 187 218 l 0
 238 184 239 87 181 29 c 0
 139 -13 89 -13 58 -2 c 0
 24 -61 l 0
 5 -61 l 0
 44 6 l 0
EndSplineSet
EndChar

StartChar: thorn
Encoding: 254 254 206
Width: 287
VWidth: 0
Flags: HMW
LayerCount: 2
Fore
SplineSet
126 192 m 0
 84 150 55 58 90 23 c 0
 104 9 136 9 160 33 c 0
 202 75 221 176 195 202 c 0
 181 216 150 216 126 192 c 0
-10 -60 m 0
 85 268 l 0
 93 294 85 300 45 299 c 0
 48 318 l 0
 142 325 l 0
 105 192 l 0
 145 242 202 242 229 215 c 0
 265 179 265 90 201 26 c 0
 155 -20 88 -20 60 28 c 0
 36 -53 l 0
 27 -84 38 -86 70 -85 c 0
 66 -103 l 0
 -51 -103 l 0
 -47 -85 l 0
 -27 -85 -16 -83 -10 -60 c 0
EndSplineSet
EndChar

